<?xml version="1.0" encoding="UTF-8" ?>
<!DOCTYPE svg PUBLIC "-//W3C//DTD SVG 1.1//EN" "http://www.w3.org/Graphics/SVG/1.1/DTD/svg11.dtd">
<svg width="1024pt" height="1062pt" viewBox="0 0 1024 1062" version="1.1" xmlns="http://www.w3.org/2000/svg">
<g id="#da251dff">
<path fill="#da251d" opacity="1.00" d=" M 513.30 0.00 L 513.69 0.00 C 577.46 42.42 641.53 84.40 705.41 126.65 C 811.60 196.72 917.80 266.79 1023.99 336.86 C 979.50 578.58 934.99 820.29 890.49 1062.00 L 808.60 1062.00 C 757.07 1061.50 705.52 1061.73 653.98 1061.52 C 480.83 1061.17 307.68 1060.84 134.53 1060.46 C 102.40 886.90 70.25 713.34 38.11 539.78 C 25.38 471.36 12.88 402.89 0.00 334.49 L 0.00 334.04 C 130.47 249.16 260.95 164.28 391.43 79.40 C 432.03 52.91 472.79 26.64 513.30 0.00 M 28.57 344.67 C 28.31 344.94 27.79 345.48 27.52 345.75 C 37.66 401.25 48.05 456.70 58.28 512.18 C 90.46 685.67 122.45 859.20 154.75 1032.67 C 393.10 1033.01 631.45 1033.65 869.81 1034.01 C 911.86 805.36 954.00 576.74 996.07 348.09 C 835.08 241.88 674.12 135.61 513.10 29.43 C 351.61 134.54 190.08 239.58 28.57 344.67 Z" />
</g>
<g id="#ffffffff">
<path fill="#ffffff" opacity="1.00" d=" M 28.57 344.67 C 190.08 239.58 351.61 134.54 513.10 29.43 C 674.12 135.61 835.08 241.88 996.07 348.09 C 954.00 576.74 911.86 805.36 869.81 1034.01 C 631.45 1033.65 393.10 1033.01 154.75 1032.67 C 122.45 859.20 90.46 685.67 58.28 512.18 C 48.05 456.70 37.66 401.25 27.52 345.75 C 27.79 345.48 28.31 344.94 28.57 344.67 M 52.60 358.68 C 92.65 575.63 132.66 792.59 172.69 1009.55 C 397.79 1009.22 622.89 1008.80 847.99 1008.45 C 887.72 792.68 927.46 576.92 967.16 361.15 C 815.14 260.90 663.20 160.53 511.15 60.32 C 358.34 159.83 205.43 259.19 52.60 358.68 Z" />
<path fill="#ffffff" opacity="1.00" d=" M 515.83 211.83 C 520.16 208.45 527.38 211.60 527.62 217.14 C 528.02 225.32 527.51 233.52 527.86 241.70 C 537.23 248.59 545.01 257.68 549.81 268.31 C 556.39 267.96 562.67 272.12 564.82 278.35 C 568.44 287.06 564.37 297.99 555.58 301.73 C 559.62 371.87 563.56 442.02 567.56 512.16 C 567.74 515.38 567.93 518.60 568.11 521.82 C 568.25 524.57 568.40 527.33 568.62 530.08 C 573.65 533.78 575.80 540.52 573.47 546.39 C 578.51 550.28 581.87 556.53 581.06 563.01 C 580.92 568.03 578.24 572.35 575.57 576.39 C 575.29 579.44 575.51 582.51 575.49 585.57 C 580.85 587.63 586.28 590.97 588.45 596.56 C 592.79 606.86 585.36 620.67 573.71 620.99 C 574.13 622.07 574.91 622.74 576.05 622.98 C 588.04 627.05 599.99 631.20 611.97 635.29 C 613.75 635.89 615.50 636.82 616.56 638.45 C 620.00 643.59 622.04 649.76 621.92 655.99 C 621.59 660.30 624.62 663.85 625.08 668.05 C 625.64 672.84 628.08 677.16 628.53 681.98 C 628.84 684.59 628.49 687.23 628.70 689.85 C 630.00 692.73 631.53 695.51 632.66 698.47 C 638.47 698.46 644.27 698.37 650.08 698.48 C 652.78 698.51 655.58 699.60 657.16 701.90 C 659.26 704.59 658.78 708.24 658.92 711.45 C 661.38 711.73 664.07 712.28 665.63 714.42 C 668.13 717.41 667.18 721.55 667.36 725.12 C 671.14 725.32 675.72 724.24 678.74 727.18 C 680.91 729.00 681.06 731.93 681.29 734.53 C 685.77 734.74 691.53 733.25 694.70 737.40 C 697.53 741.41 695.88 746.69 696.33 751.26 C 698.30 751.92 700.50 752.51 701.76 754.33 C 704.13 757.30 703.22 761.36 703.37 764.87 C 706.93 765.01 711.20 764.23 713.90 767.16 C 717.21 770.47 715.81 775.55 716.10 779.73 C 719.43 779.73 723.41 779.37 725.78 782.25 C 728.13 784.58 727.70 788.09 727.81 791.11 C 730.47 791.23 733.51 791.30 735.45 793.45 C 738.69 796.72 737.43 801.70 737.61 805.84 C 742.03 806.27 747.45 804.61 750.98 808.12 C 754.28 811.37 752.92 816.42 753.20 820.56 C 757.60 820.06 763.31 821.01 764.54 826.05 C 765.24 832.00 764.66 838.04 764.85 844.02 C 763.29 844.27 761.71 844.44 760.15 844.64 C 760.10 838.19 760.14 831.74 760.12 825.30 C 756.23 825.30 752.35 825.30 748.47 825.30 C 748.46 820.40 748.47 815.50 748.47 810.60 C 743.28 810.59 738.11 810.60 732.93 810.59 C 732.92 805.71 732.92 800.83 732.93 795.95 C 729.62 795.94 726.33 795.94 723.03 795.94 C 723.03 792.11 723.04 788.28 722.99 784.46 C 719.12 784.47 715.26 784.47 711.40 784.48 C 711.37 779.53 711.38 774.58 711.38 769.63 C 707.13 769.63 702.89 769.64 698.65 769.60 C 698.67 765.12 698.66 760.63 698.67 756.15 C 696.31 756.14 693.95 756.13 691.60 756.14 C 691.59 750.50 691.59 744.86 691.60 739.23 C 686.54 739.22 681.47 739.22 676.41 739.22 C 676.40 736.09 676.40 732.97 676.40 729.85 C 671.80 729.85 667.21 729.86 662.62 729.83 C 662.64 725.33 662.63 720.84 662.63 716.35 C 659.80 716.34 656.97 716.35 654.15 716.36 C 654.11 712.93 654.35 709.49 653.99 706.08 C 653.83 704.15 651.78 703.08 650.02 703.20 C 643.00 702.97 635.96 703.39 628.94 703.06 C 627.87 698.70 625.88 694.71 623.73 690.80 C 624.24 685.23 624.00 679.55 621.57 674.41 C 620.68 669.35 619.40 664.42 617.25 659.74 C 617.68 652.96 616.19 646.20 612.46 640.48 C 598.24 635.33 583.71 630.97 569.65 625.48 C 569.01 622.11 569.46 618.64 569.34 615.23 C 572.04 615.72 574.96 616.58 577.60 615.33 C 584.62 612.04 587.41 601.70 582.45 595.56 C 579.57 591.93 575.00 590.43 570.76 589.05 C 570.75 584.03 570.72 579.02 570.78 574.00 C 575.94 569.39 578.19 561.30 574.88 555.00 C 573.23 551.75 570.02 549.81 566.90 548.20 C 568.68 545.58 570.37 542.47 569.49 539.20 C 568.93 536.23 566.34 534.41 564.04 532.79 C 559.50 454.39 555.15 375.97 550.62 297.57 C 561.72 297.45 564.95 281.32 556.91 275.10 C 554.16 272.62 550.23 272.92 547.03 274.23 C 542.74 261.77 533.74 251.44 523.02 243.98 C 523.02 235.99 523.03 227.99 523.04 219.99 C 522.96 218.42 523.24 216.33 521.56 215.49 C 519.73 214.33 517.15 216.00 517.42 218.14 C 517.21 227.04 517.52 235.95 517.29 244.85 C 507.31 252.16 499.52 262.53 495.94 274.43 C 493.10 272.86 489.57 271.81 486.54 273.51 C 478.64 277.64 478.26 290.45 485.59 295.33 C 487.65 296.88 490.32 296.68 492.75 296.71 C 489.57 374.82 486.55 452.94 483.43 531.05 C 483.54 533.61 480.47 534.45 479.25 536.35 C 476.43 539.97 477.98 544.90 480.54 548.20 C 478.14 549.42 475.64 550.69 473.95 552.85 C 469.43 558.32 470.35 566.98 474.99 572.09 C 475.56 572.99 476.70 573.71 476.63 574.91 C 476.82 579.68 476.68 584.45 476.59 589.22 C 471.79 590.42 466.63 592.40 464.01 596.91 C 459.37 604.77 465.54 617.19 475.28 616.11 C 475.29 619.67 475.29 623.23 475.15 626.80 C 462.24 632.33 449.22 637.64 436.38 643.33 C 431.90 647.49 429.25 654.55 432.35 660.34 C 429.01 664.24 426.37 669.45 428.69 674.57 C 425.91 678.52 424.28 683.33 425.30 688.18 C 421.80 692.31 418.74 697.62 420.70 703.19 C 411.78 703.13 402.87 703.17 393.96 703.15 C 391.99 703.07 389.30 703.32 388.76 705.65 C 388.20 709.18 388.59 712.78 388.51 716.35 C 385.69 716.34 382.87 716.34 380.05 716.33 C 380.01 720.83 380.02 725.34 380.02 729.85 C 375.43 729.84 370.84 729.84 366.25 729.85 C 366.24 732.97 366.24 736.09 366.23 739.22 C 363.29 739.22 360.35 739.22 357.41 739.23 C 357.42 744.86 357.42 750.50 357.41 756.14 C 352.94 756.14 348.47 756.14 344.00 756.14 C 343.99 760.63 343.99 765.13 344.00 769.62 C 339.76 769.63 335.52 769.63 331.28 769.62 C 331.27 774.57 331.27 779.51 331.28 784.46 C 327.39 784.47 323.50 784.47 319.62 784.48 C 319.61 788.29 319.61 792.11 319.62 795.93 C 316.32 795.94 313.02 795.94 309.73 795.95 C 309.72 800.83 309.73 805.71 309.72 810.60 C 304.54 810.59 299.36 810.59 294.18 810.60 C 294.18 815.50 294.18 820.40 294.18 825.30 C 290.29 825.30 286.40 825.29 282.52 825.32 C 282.53 831.72 282.52 838.13 282.53 844.53 C 280.95 844.52 279.38 844.52 277.81 844.53 C 277.85 839.01 277.70 833.48 277.86 827.97 C 277.82 824.48 280.58 821.20 284.05 820.74 C 285.84 820.51 287.66 820.56 289.46 820.55 C 289.71 816.33 288.35 811.13 291.87 807.92 C 295.44 804.67 300.64 806.22 304.99 805.89 C 305.26 801.70 303.90 796.61 307.31 793.35 C 309.25 791.26 312.22 791.23 314.85 791.12 C 314.92 788.01 314.54 784.37 317.06 782.05 C 319.45 779.36 323.31 779.76 326.56 779.72 C 326.81 775.46 325.42 770.20 328.97 766.95 C 331.69 764.25 335.80 765.01 339.26 764.89 C 339.42 761.08 338.41 756.45 341.59 753.56 C 344.51 750.62 348.97 751.56 352.69 751.43 C 352.79 747.62 352.39 743.79 352.99 740.02 C 353.89 736.26 357.77 734.31 361.41 734.36 C 361.55 731.76 361.83 728.87 363.99 727.11 C 367.04 724.25 371.52 725.32 375.29 725.12 C 375.47 721.48 374.49 717.20 377.18 714.23 C 378.75 712.19 381.38 711.79 383.76 711.46 C 383.83 708.14 383.40 704.33 385.72 701.62 C 387.38 699.34 390.30 698.46 393.02 698.46 C 400.42 698.40 407.83 698.47 415.24 698.44 C 415.80 694.22 417.69 690.36 420.21 686.97 C 419.97 682.40 421.22 677.97 423.37 673.97 C 422.29 668.87 423.91 663.75 426.94 659.64 C 424.72 652.73 427.95 645.59 432.42 640.38 C 433.88 639.00 435.83 638.37 437.63 637.57 C 448.55 633.03 459.37 628.25 470.33 623.80 C 470.42 623.03 470.61 621.49 470.71 620.72 C 460.07 617.88 454.44 604.33 459.81 594.78 C 462.35 590.16 467.07 587.29 471.93 585.62 C 471.97 582.40 471.98 579.18 471.94 575.97 C 464.21 567.90 464.15 553.03 473.91 546.51 C 472.33 541.54 472.86 535.59 476.90 531.93 C 479.72 529.99 478.69 526.36 479.02 523.46 C 479.13 520.24 479.27 517.03 479.40 513.82 C 482.26 443.10 484.89 372.36 487.90 301.64 C 484.91 300.32 481.75 298.95 479.70 296.29 C 473.24 288.70 474.59 275.57 483.11 270.07 C 486.02 267.97 489.70 267.90 493.14 267.97 C 496.54 260.31 501.09 253.06 507.22 247.28 C 508.91 245.64 510.84 244.23 512.37 242.43 C 513.04 236.31 512.46 230.09 512.62 223.94 C 512.70 219.80 511.82 214.50 515.83 211.83 Z" />
<path fill="#ffffff" opacity="1.00" d=" M 181.91 818.82 C 187.04 818.10 191.84 820.51 196.31 822.69 C 207.40 828.19 216.57 836.71 227.31 842.76 C 236.35 848.00 246.44 852.14 257.05 852.07 C 424.38 852.07 591.72 852.08 759.05 852.07 C 773.39 851.98 786.32 844.65 797.85 836.80 C 805.83 831.03 813.82 825.08 822.87 821.07 C 826.31 819.55 830.05 818.18 833.88 818.88 C 834.35 827.44 829.01 834.83 824.85 841.88 C 812.60 859.32 804.08 880.37 805.52 902.00 C 806.29 915.03 810.57 927.70 817.09 938.96 C 821.63 946.72 826.09 954.93 827.08 964.03 C 827.24 966.73 827.24 970.15 824.81 971.92 C 822.18 973.34 819.03 972.39 816.40 971.49 C 807.96 968.38 801.78 961.59 794.45 956.70 C 784.85 949.99 774.78 943.42 763.34 940.39 C 758.03 938.76 752.44 939.57 746.99 939.44 C 584.33 940.29 421.67 940.26 259.01 939.39 C 245.45 940.46 233.66 948.32 222.69 955.74 C 214.16 961.21 207.17 969.45 197.10 972.20 C 194.36 973.01 190.36 973.00 189.28 969.75 C 187.70 964.82 189.28 959.59 190.84 954.86 C 193.96 945.58 200.12 937.77 203.79 928.74 C 209.59 915.33 211.75 900.32 209.54 885.86 C 207.54 872.36 202.13 859.54 194.95 848.00 C 190.25 840.83 185.23 833.67 182.57 825.44 C 181.83 823.30 181.74 821.04 181.91 818.82 M 204.59 835.64 C 201.90 836.65 198.72 838.76 198.96 842.03 C 199.27 845.14 201.10 847.80 202.59 850.48 C 208.25 859.78 214.06 869.28 216.61 879.99 C 218.29 887.69 218.11 895.69 217.17 903.48 C 216.06 911.85 214.04 920.28 209.62 927.57 C 205.74 934.91 200.87 941.94 198.76 950.06 C 197.47 954.21 200.40 959.29 204.97 959.30 C 209.28 958.59 212.63 955.49 216.16 953.16 C 227.05 945.32 238.67 937.78 251.98 934.92 C 259.51 933.12 267.30 933.81 274.96 933.70 C 429.64 933.87 584.32 933.87 739.00 933.70 C 748.41 933.81 758.04 932.93 767.17 935.75 C 779.87 939.27 790.86 946.85 801.43 954.45 C 804.38 956.39 807.30 958.90 810.95 959.29 C 815.49 959.18 818.30 954.10 816.99 949.98 C 814.11 939.35 806.91 930.61 802.69 920.56 C 798.66 909.53 797.24 897.57 798.22 885.90 C 799.50 872.25 807.19 860.49 814.03 849.01 C 815.53 846.18 817.76 842.85 816.32 839.56 C 813.85 835.52 808.20 834.05 804.09 836.45 C 795.41 841.05 788.21 848.03 779.44 852.46 C 767.78 857.90 754.59 857.83 742.00 857.82 C 583.98 857.81 425.96 857.82 267.94 857.82 C 257.51 857.69 246.73 857.12 237.06 852.80 C 228.17 848.53 220.94 841.55 212.34 836.78 C 210.00 835.52 207.19 834.77 204.59 835.64 Z" />
<path fill="#ffffff" opacity="1.00" d=" M 204.45 841.82 C 205.91 841.19 207.53 840.42 209.04 841.45 C 218.79 846.64 226.73 854.94 237.15 858.95 C 247.57 862.95 258.90 863.43 269.93 863.46 C 420.63 863.47 571.32 863.46 722.01 863.47 C 733.32 863.37 744.64 863.70 755.95 863.22 C 765.70 862.72 775.69 861.08 784.33 856.28 C 792.03 851.85 798.73 845.84 806.52 841.54 C 808.10 840.47 809.86 841.01 811.33 842.00 C 806.72 851.05 800.63 859.32 796.91 868.82 C 790.38 883.80 791.44 900.93 795.42 916.43 C 797.56 925.38 802.97 932.93 807.12 940.99 C 809.14 945.00 811.65 949.04 811.64 953.70 C 806.44 951.97 802.49 947.92 797.90 945.09 C 787.08 937.53 775.11 930.99 761.95 928.83 C 756.69 927.85 751.33 928.04 746.02 928.06 C 584.68 928.24 423.35 928.22 262.02 928.06 C 245.88 928.33 230.97 935.90 218.03 944.98 C 213.46 947.92 209.34 951.64 204.33 953.85 C 203.81 949.77 206.09 946.17 207.77 942.65 C 212.16 933.86 218.19 925.74 220.46 916.03 C 224.42 900.38 225.34 883.08 218.55 868.06 C 214.86 858.78 208.74 850.78 204.45 841.82 M 231.42 879.27 C 231.40 880.77 231.39 882.27 231.37 883.79 C 232.76 884.25 235.43 883.76 235.15 886.01 C 235.21 893.60 235.58 901.25 234.89 908.83 C 233.72 908.99 232.55 909.16 231.38 909.34 C 231.39 910.87 231.39 912.41 231.40 913.97 C 235.78 914.00 240.16 914.05 244.54 913.93 C 244.51 912.40 244.50 910.89 244.50 909.39 C 243.16 908.90 240.61 909.56 240.68 907.51 C 240.45 900.60 240.68 893.68 240.58 886.77 C 243.45 895.74 245.58 904.94 248.14 914.02 C 249.63 913.98 251.12 913.96 252.62 913.94 C 255.16 904.52 257.52 895.05 260.36 885.73 C 260.18 893.43 260.74 901.17 260.04 908.86 C 259.15 908.97 257.39 909.19 256.50 909.30 C 256.50 910.85 256.50 912.42 256.51 914.00 C 261.63 913.99 266.75 914.00 271.87 913.99 C 271.87 912.43 271.88 910.88 271.89 909.34 C 270.66 909.15 269.44 908.96 268.22 908.77 C 267.88 901.16 267.95 893.53 268.13 885.93 C 268.00 883.83 270.54 884.21 271.89 883.83 C 271.87 882.29 271.87 880.77 271.86 879.26 C 266.97 879.27 262.07 879.27 257.18 879.27 C 255.27 886.26 253.35 893.26 251.48 900.27 C 249.44 893.31 247.77 886.25 245.85 879.26 C 241.04 879.27 236.23 879.26 231.42 879.27 M 287.62 879.29 C 284.01 889.07 280.77 899.00 276.83 908.65 C 276.20 908.82 274.94 909.15 274.31 909.32 C 274.31 910.86 274.32 912.40 274.32 913.96 C 278.45 914.02 282.59 914.02 286.73 913.96 C 286.72 912.38 286.72 910.82 286.72 909.26 C 285.94 909.19 284.37 909.04 283.59 908.97 C 283.54 906.86 284.29 904.87 284.95 902.92 C 288.23 902.91 291.52 902.90 294.80 902.95 C 295.06 904.85 296.49 906.89 295.71 908.78 C 295.01 908.93 293.62 909.23 292.93 909.38 C 292.92 910.91 292.92 912.45 292.92 914.00 C 297.96 914.00 303.00 914.00 308.05 914.00 C 308.03 912.47 308.02 910.95 308.00 909.45 C 306.73 908.94 305.14 908.67 304.85 907.09 C 301.35 897.87 298.19 888.52 294.82 879.27 C 292.42 879.26 290.02 879.26 287.62 879.29 M 310.58 879.28 C 310.55 880.76 310.52 882.26 310.50 883.77 C 311.85 884.22 314.46 883.77 314.31 885.93 C 314.45 893.54 314.72 901.21 314.11 908.81 C 312.92 908.98 311.73 909.16 310.55 909.34 C 310.54 910.86 310.53 912.38 310.51 913.93 C 318.66 914.09 326.81 913.96 334.96 914.00 C 336.36 909.72 337.77 905.44 339.17 901.17 C 337.79 900.64 336.41 900.12 335.04 899.61 C 333.93 902.14 332.85 904.88 330.57 906.62 C 328.36 908.48 325.31 908.38 322.60 908.56 C 322.03 901.07 322.33 893.53 322.40 886.03 C 322.26 883.88 324.69 884.11 326.15 883.90 C 326.18 882.35 326.19 880.82 326.22 879.30 C 321.01 879.23 315.79 879.27 310.58 879.28 M 352.64 879.31 C 349.06 889.08 345.79 898.98 341.88 908.64 C 341.24 908.81 339.97 909.16 339.34 909.33 C 339.34 910.86 339.35 912.40 339.34 913.96 C 343.47 914.02 347.60 914.00 351.74 913.99 C 351.74 912.40 351.74 910.83 351.76 909.26 C 350.98 909.19 349.41 909.05 348.63 908.97 C 348.56 906.85 349.33 904.87 349.98 902.91 C 353.26 902.91 356.54 902.91 359.82 902.92 C 360.41 904.85 360.83 906.83 361.07 908.85 C 360.29 908.96 358.73 909.17 357.95 909.28 C 357.95 910.84 357.95 912.41 357.95 914.00 C 362.99 914.00 368.03 914.00 373.07 914.00 C 373.06 912.47 373.06 910.97 373.05 909.47 C 371.78 908.95 370.19 908.67 369.89 907.11 C 366.39 897.88 363.23 888.52 359.84 879.26 C 357.43 879.26 355.03 879.26 352.64 879.31 M 375.53 879.27 C 375.48 880.74 375.44 882.22 375.39 883.70 C 376.74 884.21 379.35 883.77 379.25 885.90 C 379.40 893.53 379.64 901.20 379.07 908.82 C 377.87 908.98 376.67 909.16 375.49 909.34 C 375.47 910.86 375.46 912.39 375.45 913.93 C 379.88 914.05 384.32 913.99 388.76 913.99 C 388.76 912.42 388.77 910.88 388.79 909.34 C 387.57 909.16 386.36 908.99 385.16 908.83 C 384.60 902.10 384.97 895.35 384.93 888.61 C 389.00 897.03 392.78 905.59 396.82 914.03 C 398.98 914.00 401.15 913.99 403.33 913.99 C 403.41 904.68 403.19 895.35 403.43 886.05 C 403.25 883.90 405.78 884.17 407.19 883.86 C 407.20 882.33 407.21 880.80 407.23 879.29 C 402.83 879.25 398.42 879.28 394.02 879.26 C 394.01 880.78 394.00 882.32 394.00 883.87 C 395.17 884.23 396.85 883.82 397.65 885.00 C 398.05 889.71 397.93 894.46 397.69 899.19 C 394.63 892.55 391.54 885.94 388.52 879.30 C 384.19 879.25 379.86 879.27 375.53 879.27 M 415.07 883.99 C 408.13 892.09 409.47 906.40 418.61 912.33 C 423.82 915.77 430.78 914.96 435.80 911.58 C 436.09 912.19 436.67 913.41 436.96 914.01 C 438.52 913.98 440.10 913.97 441.67 913.96 C 441.64 909.56 441.54 905.16 441.83 900.78 C 442.95 900.56 444.07 900.36 445.20 900.18 C 445.21 898.62 445.23 897.08 445.25 895.55 C 440.04 895.43 434.82 895.50 429.61 895.50 C 429.61 897.04 429.62 898.59 429.63 900.15 C 431.03 900.33 432.45 900.57 433.86 900.82 C 433.71 902.84 434.44 905.27 433.06 907.01 C 430.27 909.90 425.09 909.39 422.69 906.25 C 419.42 902.04 419.06 896.17 420.20 891.13 C 421.06 887.23 424.66 883.48 428.93 884.33 C 433.06 885.04 435.22 888.97 437.18 892.24 C 438.57 891.75 439.96 891.26 441.36 890.79 C 440.42 886.91 439.43 883.06 438.47 879.19 C 436.94 879.26 435.19 879.02 434.29 880.58 C 428.03 877.22 419.68 878.46 415.07 883.99 M 459.45 879.27 C 459.43 880.76 459.41 882.26 459.40 883.78 C 460.68 884.27 463.33 883.85 463.14 885.94 C 463.30 893.54 463.51 901.19 462.97 908.79 C 461.78 908.96 460.60 909.15 459.43 909.34 C 459.41 910.85 459.40 912.38 459.38 913.91 C 464.58 914.08 469.80 913.96 475.01 914.00 C 475.00 912.44 475.00 910.89 475.00 909.36 C 473.87 908.89 471.67 909.59 471.36 908.01 C 471.05 906.34 471.12 904.65 471.07 902.99 C 472.71 901.47 474.35 899.96 476.01 898.48 C 478.17 901.95 480.61 905.25 482.45 908.92 C 481.62 909.01 479.97 909.18 479.14 909.27 C 479.14 910.83 479.14 912.41 479.15 914.00 C 484.52 914.00 489.90 914.00 495.27 914.00 C 495.26 912.46 495.26 910.94 495.26 909.44 C 493.85 909.08 492.24 908.89 491.47 907.50 C 488.01 902.84 484.91 897.91 481.59 893.15 C 485.60 890.05 488.46 884.99 493.62 883.75 C 493.60 882.24 493.59 880.75 493.59 879.27 C 488.78 879.26 483.97 879.27 479.16 879.26 C 479.14 880.81 479.14 882.36 479.14 883.93 C 479.93 884.04 481.52 884.27 482.32 884.39 C 479.03 888.69 474.82 892.17 471.13 896.12 C 471.20 892.47 470.86 888.79 471.36 885.17 C 471.97 883.76 473.81 884.26 475.01 883.89 C 474.99 882.33 474.99 880.79 474.98 879.26 C 469.80 879.28 464.62 879.26 459.45 879.27 M 496.69 879.28 C 496.66 880.79 496.63 882.31 496.60 883.84 C 497.75 884.00 498.91 884.16 500.08 884.33 C 501.26 891.49 499.77 898.84 501.02 906.00 C 502.36 911.60 508.37 915.06 513.93 914.55 C 519.41 914.55 524.61 910.43 525.38 904.92 C 526.22 898.22 525.48 891.44 525.88 884.72 C 527.15 884.40 528.42 884.10 529.71 883.82 C 529.69 882.29 529.68 880.78 529.69 879.27 C 525.29 879.27 520.89 879.26 516.49 879.27 C 516.46 880.76 516.44 882.26 516.42 883.78 C 517.76 884.25 520.41 883.73 520.19 885.92 C 520.25 891.95 520.58 898.03 519.92 904.04 C 519.36 908.56 512.73 910.34 509.95 906.75 C 508.13 904.23 508.48 900.91 508.37 897.98 C 508.48 893.79 508.12 889.57 508.59 885.41 C 508.91 883.70 511.02 884.31 512.23 883.91 C 512.25 882.36 512.27 880.81 512.30 879.28 C 507.10 879.26 501.89 879.26 496.69 879.28 M 535.81 885.80 C 528.90 895.87 534.14 912.73 546.97 914.58 C 546.84 915.62 546.73 916.68 546.62 917.75 C 548.52 917.75 552.16 918.11 550.77 920.94 C 549.18 922.46 547.29 919.59 545.38 920.22 C 544.61 921.35 544.67 922.43 545.56 923.47 C 548.53 926.31 554.93 924.60 554.91 920.07 C 555.22 917.07 551.93 915.84 549.48 916.03 L 549.50 914.68 C 556.26 914.46 561.66 909.82 565.10 904.33 C 563.94 903.38 562.79 902.44 561.65 901.51 C 559.34 904.39 556.73 907.51 552.98 908.42 C 550.14 909.14 546.96 908.19 545.11 905.91 C 541.42 901.50 540.81 895.02 542.75 889.73 C 544.03 886.07 548.03 883.31 551.94 884.48 C 555.87 885.62 557.87 889.56 559.56 892.97 C 561.02 892.58 562.48 892.19 563.95 891.79 C 562.91 887.57 561.84 883.36 560.77 879.15 C 559.26 879.30 557.44 878.99 556.61 880.58 C 549.63 876.74 539.98 878.86 535.81 885.80 M 568.24 879.27 C 568.22 880.77 568.21 882.29 568.20 883.82 C 569.53 884.27 572.23 883.74 571.98 885.96 C 572.19 892.98 572.12 900.02 572.02 907.05 C 572.38 909.33 569.62 908.94 568.21 909.38 C 568.22 910.91 568.22 912.44 568.23 913.99 C 577.44 914.00 586.65 914.00 595.86 914.00 C 597.26 909.69 598.66 905.40 600.06 901.10 C 598.68 900.58 597.30 900.07 595.94 899.58 C 594.86 902.07 593.71 904.70 591.46 906.37 C 588.25 908.90 583.87 908.48 580.06 908.23 C 579.92 904.87 579.90 901.50 580.10 898.15 C 581.60 898.48 583.40 898.16 584.67 899.18 C 585.01 900.50 585.17 901.88 585.36 903.25 C 586.34 903.25 588.29 903.24 589.26 903.24 C 589.26 898.35 589.25 893.46 589.27 888.58 C 587.96 888.55 586.65 888.52 585.35 888.51 C 585.13 889.93 585.08 891.41 584.61 892.80 C 583.20 893.58 581.49 893.33 579.97 893.60 C 579.96 890.66 579.96 887.73 579.96 884.80 C 582.94 884.86 586.02 884.54 588.92 885.42 C 591.80 886.38 593.17 889.32 594.47 891.82 C 595.82 891.29 597.18 890.76 598.54 890.25 C 597.33 886.59 596.12 882.92 594.90 879.27 C 586.01 879.27 577.13 879.27 568.24 879.27 M 605.65 885.59 C 598.54 895.66 603.76 912.71 616.68 914.60 C 616.56 915.65 616.44 916.71 616.33 917.79 C 617.96 917.71 621.64 918.03 620.54 920.56 C 619.33 923.42 616.03 918.18 614.69 920.99 C 613.82 923.91 617.81 925.29 620.09 924.74 C 623.59 924.67 626.16 920.01 623.61 917.30 C 622.47 915.60 618.88 917.27 619.08 914.65 C 625.92 914.55 631.37 909.84 634.80 904.30 C 633.65 903.38 632.51 902.44 631.39 901.53 C 628.70 904.77 625.52 908.53 620.94 908.64 C 616.93 908.93 613.82 905.57 612.53 902.09 C 610.91 897.69 610.85 892.45 613.16 888.28 C 614.87 885.08 618.97 883.26 622.41 884.73 C 625.94 886.22 627.67 889.89 629.40 893.07 C 630.82 892.60 632.25 892.12 633.68 891.66 C 632.55 887.52 631.53 883.36 630.51 879.21 C 628.98 879.27 627.22 878.98 626.33 880.54 C 619.40 876.84 609.89 878.78 605.65 885.59 M 636.52 879.27 C 636.51 880.74 636.50 882.22 636.49 883.72 C 637.70 884.31 639.50 884.47 639.70 886.13 C 642.44 895.35 644.74 904.71 647.27 913.99 C 649.70 914.01 652.14 913.99 654.58 913.91 C 655.76 909.26 657.15 904.67 658.50 900.08 C 659.69 904.72 660.95 909.35 662.18 913.99 C 664.48 913.99 666.78 913.99 669.09 914.00 C 671.65 904.81 673.92 895.53 676.65 886.39 C 676.88 884.73 678.51 884.25 679.88 883.83 C 679.88 882.29 679.88 880.77 679.90 879.26 C 675.83 879.27 671.78 879.26 667.72 879.28 C 667.72 880.71 667.68 882.16 667.78 883.62 C 668.83 884.04 669.90 884.44 671.00 884.81 C 669.59 890.94 668.19 897.08 666.51 903.15 C 665.09 897.02 663.50 890.93 662.28 884.76 C 663.36 884.40 664.44 884.07 665.54 883.75 C 665.51 882.25 665.49 880.75 665.48 879.27 C 661.03 879.26 656.58 879.27 652.14 879.27 C 652.14 880.76 652.15 882.25 652.18 883.77 C 652.66 884.06 653.62 884.64 654.10 884.94 C 655.34 888.08 657.04 891.65 655.60 895.02 C 654.62 898.35 653.63 901.67 652.66 905.01 C 651.19 898.17 649.12 891.46 648.07 884.55 C 648.71 884.36 649.99 883.99 650.63 883.80 C 650.59 882.28 650.57 880.77 650.56 879.27 C 645.88 879.27 641.20 879.26 636.52 879.27 M 694.22 879.27 C 690.83 888.53 687.60 897.86 684.11 907.09 C 683.79 908.65 682.19 908.95 680.93 909.43 C 680.90 910.94 680.90 912.46 680.90 914.00 C 685.02 914.00 689.15 914.00 693.28 914.00 C 693.27 912.45 693.27 910.91 693.27 909.39 C 692.52 909.22 691.02 908.88 690.27 908.72 C 689.80 906.78 691.02 904.89 691.41 903.04 C 694.69 902.88 697.97 902.91 701.26 902.88 C 702.09 905.35 704.19 909.95 699.54 909.31 C 699.50 910.85 699.48 912.42 699.47 914.00 C 704.53 913.98 709.58 914.05 714.64 913.94 C 714.62 912.41 714.62 910.88 714.64 909.37 C 714.02 909.20 712.78 908.87 712.16 908.71 C 708.20 899.06 705.00 889.11 701.44 879.31 C 699.03 879.26 696.62 879.26 694.22 879.27 M 716.96 879.27 C 716.95 880.85 716.94 882.44 716.96 884.04 C 718.30 884.43 720.97 883.86 720.69 886.07 C 720.80 893.29 720.91 900.53 720.63 907.74 C 720.54 909.55 718.12 908.91 716.96 909.37 C 716.94 910.90 716.94 912.44 716.95 914.00 C 722.16 913.98 727.38 914.05 732.60 913.95 C 732.57 912.40 732.57 910.86 732.58 909.34 C 731.37 909.16 730.18 908.99 728.99 908.83 C 728.65 905.52 728.67 902.18 728.73 898.87 C 730.15 898.91 731.83 898.99 732.46 900.55 C 735.47 904.88 738.31 909.35 741.44 913.60 C 744.70 914.56 748.44 913.72 751.88 914.00 C 751.88 912.45 751.90 910.92 751.93 909.40 C 750.56 909.02 748.85 909.30 747.81 908.19 C 744.99 905.17 742.68 901.71 740.01 898.57 C 741.96 897.77 744.01 897.05 745.63 895.65 C 749.94 892.31 749.61 884.96 745.38 881.70 C 742.78 879.50 739.21 879.39 735.99 879.29 C 729.65 879.23 723.30 879.29 716.96 879.27 M 755.82 906.81 C 755.44 908.44 753.98 909.07 752.49 909.44 C 752.48 910.95 752.48 912.46 752.50 914.00 C 756.61 914.00 760.74 914.00 764.86 914.00 C 764.85 912.41 764.86 910.83 764.88 909.27 C 764.07 909.17 762.46 908.98 761.65 908.88 C 761.83 906.82 762.43 904.85 763.09 902.92 C 766.36 902.91 769.64 902.91 772.92 902.92 C 773.16 904.81 774.78 906.97 773.82 908.76 C 773.13 908.92 771.75 909.23 771.06 909.39 C 771.05 910.91 771.06 912.45 771.07 914.00 C 776.11 914.00 781.16 914.00 786.21 914.00 C 786.19 912.47 786.17 910.96 786.17 909.47 C 784.74 909.02 783.19 908.50 782.90 906.84 C 779.44 897.70 776.35 888.42 772.93 879.26 C 770.60 879.26 768.27 879.17 765.95 879.33 C 762.25 888.35 759.34 897.71 755.82 906.81 Z" />
<path fill="#ffffff" opacity="1.00" d=" M 728.72 884.96 C 731.82 885.08 735.07 884.57 738.08 885.54 C 741.26 886.71 741.14 891.84 738.12 893.15 C 735.16 894.37 731.83 893.83 728.72 893.97 C 728.71 890.96 728.71 887.96 728.72 884.96 Z" />
<path fill="#ffffff" opacity="1.00" d=" M 289.85 888.78 C 291.17 891.75 292.06 894.88 293.04 897.98 C 290.91 897.97 288.79 897.96 286.66 897.97 C 287.72 894.90 288.73 891.82 289.85 888.78 Z" />
<path fill="#ffffff" opacity="1.00" d=" M 354.87 888.80 C 356.22 891.75 357.08 894.89 358.08 897.97 C 355.95 897.96 353.82 897.96 351.69 897.97 C 352.75 894.91 353.75 891.83 354.87 888.80 Z" />
<path fill="#ffffff" opacity="1.00" d=" M 693.31 898.02 C 694.25 894.81 695.33 891.64 696.57 888.54 C 697.59 891.68 698.59 894.82 699.62 897.96 C 697.51 897.96 695.40 897.98 693.31 898.02 Z" />
<path fill="#ffffff" opacity="1.00" d=" M 764.83 897.97 C 765.86 894.87 766.84 891.74 768.15 888.75 C 769.24 891.79 770.20 894.89 771.21 897.97 C 769.07 897.96 766.95 897.96 764.83 897.97 Z" />
</g>
<g id="#1f1a17ff">
<path fill="#1f1a17" opacity="1.00" d=" M 52.60 358.68 C 205.43 259.19 358.34 159.83 511.15 60.32 C 663.20 160.53 815.14 260.90 967.16 361.15 C 927.46 576.92 887.72 792.68 847.99 1008.45 C 622.89 1008.80 397.79 1009.22 172.69 1009.55 C 132.66 792.59 92.65 575.63 52.60 358.68 M 60.95 362.21 C 100.22 575.48 139.61 788.73 178.96 1001.99 C 399.89 1001.69 620.84 1001.35 841.77 1000.89 C 880.75 788.88 919.75 576.86 958.89 364.88 C 939.24 351.56 919.28 338.69 899.51 325.55 C 832.43 281.28 765.35 237.02 698.27 192.76 C 635.83 151.66 573.56 110.29 511.03 69.35 C 361.06 167.06 210.95 264.56 60.95 362.21 Z" />
<path fill="#1f1a17" opacity="1.00" d=" M 523.54 93.71 C 525.39 97.05 526.21 100.82 527.46 104.41 C 547.68 166.21 567.77 228.06 588.06 289.84 C 658.01 290.34 727.96 290.91 797.92 291.38 C 741.99 332.07 685.80 372.40 629.83 413.03 C 649.71 475.81 669.76 538.52 689.69 601.28 C 690.80 604.76 692.05 608.20 692.76 611.80 C 651.09 581.97 609.69 551.77 568.11 521.82 C 567.93 518.60 567.74 515.38 567.56 512.16 C 604.77 538.94 641.87 565.89 679.05 592.71 C 659.74 531.82 640.31 470.97 620.97 410.09 C 672.28 372.99 723.64 335.95 774.89 298.77 C 710.79 298.25 646.70 297.74 582.60 297.36 C 562.81 237.33 543.42 177.17 523.64 117.14 C 503.37 177.70 483.08 238.26 462.80 298.82 C 399.40 298.87 335.99 298.75 272.58 298.88 C 324.05 336.98 375.90 374.57 427.31 412.75 C 407.53 472.69 388.06 532.73 368.47 592.73 C 405.48 566.48 442.42 540.12 479.40 513.82 C 479.27 517.03 479.13 520.24 479.02 523.46 C 446.63 546.20 414.51 569.32 382.23 592.20 C 372.95 598.65 363.95 605.52 354.50 611.70 C 373.59 551.96 393.39 492.43 412.75 432.77 C 414.55 426.89 416.82 421.15 418.27 415.16 C 363.64 375.39 309.33 335.17 254.79 295.27 C 253.06 294.04 251.41 292.70 249.81 291.31 C 318.22 291.33 386.63 291.30 455.04 291.32 C 458.28 292.08 458.24 288.03 459.19 285.99 C 480.60 221.88 502.11 157.81 523.54 93.71 Z" />
<path fill="#1f1a17" opacity="1.00" d=" M 517.42 218.14 C 517.15 216.00 519.73 214.33 521.56 215.49 C 523.24 216.33 522.96 218.42 523.04 219.99 C 523.03 227.99 523.02 235.99 523.02 243.98 C 533.74 251.44 542.74 261.77 547.03 274.23 C 550.23 272.92 554.16 272.62 556.91 275.10 C 564.95 281.32 561.72 297.45 550.62 297.57 C 555.15 375.97 559.50 454.39 564.04 532.79 C 566.34 534.41 568.93 536.23 569.49 539.20 C 570.37 542.47 568.68 545.58 566.90 548.20 C 570.02 549.81 573.23 551.75 574.88 555.00 C 578.19 561.30 575.94 569.39 570.78 574.00 C 570.72 579.02 570.75 584.03 570.76 589.05 C 575.00 590.43 579.57 591.93 582.45 595.56 C 587.41 601.70 584.62 612.04 577.60 615.33 C 574.96 616.58 572.04 615.72 569.34 615.23 C 569.46 618.64 569.01 622.11 569.65 625.48 C 583.71 630.97 598.24 635.33 612.46 640.48 C 616.19 646.20 617.68 652.96 617.25 659.74 C 619.40 664.42 620.68 669.35 621.57 674.41 C 624.00 679.55 624.24 685.23 623.73 690.80 C 625.88 694.71 627.87 698.70 628.94 703.06 C 635.96 703.39 643.00 702.97 650.02 703.20 C 651.78 703.08 653.83 704.15 653.99 706.08 C 654.35 709.49 654.11 712.93 654.15 716.36 C 656.97 716.35 659.80 716.34 662.63 716.35 C 662.63 720.84 662.64 725.33 662.62 729.83 C 667.21 729.86 671.80 729.85 676.40 729.85 C 676.40 732.97 676.40 736.09 676.41 739.22 C 681.47 739.22 686.54 739.22 691.60 739.23 C 691.59 744.86 691.59 750.50 691.60 756.14 C 693.95 756.13 696.31 756.14 698.67 756.15 C 698.66 760.63 698.67 765.12 698.65 769.60 C 702.89 769.64 707.13 769.63 711.38 769.63 C 711.38 774.58 711.37 779.53 711.40 784.48 C 715.26 784.47 719.12 784.47 722.99 784.46 C 723.04 788.28 723.03 792.11 723.03 795.94 C 726.33 795.94 729.62 795.94 732.93 795.95 C 732.92 800.83 732.92 805.71 732.93 810.59 C 738.11 810.60 743.28 810.59 748.47 810.60 C 748.47 815.50 748.46 820.40 748.47 825.30 C 752.35 825.30 756.23 825.30 760.12 825.30 C 760.14 831.74 760.10 838.19 760.15 844.64 C 761.71 844.44 763.29 844.27 764.85 844.02 C 778.30 841.60 789.75 833.48 800.56 825.58 C 808.21 820.27 816.15 815.08 825.08 812.20 C 829.43 810.87 834.84 810.23 838.53 813.48 C 842.20 816.80 841.90 822.36 840.66 826.73 C 838.34 834.62 834.01 841.71 829.49 848.50 C 821.69 860.01 815.77 873.02 813.69 886.85 C 811.74 899.58 813.49 912.79 818.43 924.67 C 823.89 937.70 833.69 949.29 834.61 963.91 C 835.00 968.88 833.82 974.55 829.63 977.70 C 825.70 980.72 820.30 980.56 815.78 979.20 C 807.76 976.77 801.13 971.45 794.75 966.24 C 787.18 960.64 779.39 955.21 770.87 951.14 C 766.19 949.05 761.29 947.01 756.09 946.90 C 590.73 947.80 425.35 947.82 259.99 946.90 C 248.57 947.62 238.63 954.22 229.32 960.32 C 219.48 966.48 211.46 975.78 200.04 979.18 C 194.67 980.95 187.82 980.53 184.13 975.73 C 179.65 969.78 180.91 961.66 182.87 955.00 C 186.22 943.03 194.55 933.33 198.51 921.62 C 203.54 908.05 204.20 892.95 200.47 878.97 C 197.52 867.64 192.19 857.05 185.58 847.44 C 181.07 840.54 176.70 833.30 174.74 825.22 C 173.82 821.18 173.97 816.24 177.38 813.37 C 181.14 810.14 186.59 810.94 190.97 812.29 C 203.78 816.52 214.33 825.22 225.32 832.72 C 234.82 838.81 245.37 844.54 256.96 844.54 C 263.91 844.54 270.86 844.52 277.81 844.53 C 279.38 844.52 280.95 844.52 282.53 844.53 C 282.52 838.13 282.53 831.72 282.52 825.32 C 286.40 825.29 290.29 825.30 294.18 825.30 C 294.18 820.40 294.18 815.50 294.18 810.60 C 299.36 810.59 304.54 810.59 309.72 810.60 C 309.73 805.71 309.72 800.83 309.73 795.95 C 313.02 795.94 316.32 795.94 319.62 795.93 C 319.61 792.11 319.61 788.29 319.62 784.48 C 323.50 784.47 327.39 784.47 331.28 784.46 C 331.27 779.51 331.27 774.57 331.28 769.62 C 335.52 769.63 339.76 769.63 344.00 769.62 C 343.99 765.13 343.99 760.63 344.00 756.14 C 348.47 756.14 352.94 756.14 357.41 756.14 C 357.42 750.50 357.42 744.86 357.41 739.23 C 360.35 739.22 363.29 739.22 366.23 739.22 C 366.24 736.09 366.24 732.97 366.25 729.85 C 370.84 729.84 375.43 729.84 380.02 729.85 C 380.02 725.34 380.01 720.83 380.05 716.33 C 382.87 716.34 385.69 716.34 388.51 716.35 C 388.59 712.78 388.20 709.18 388.76 705.65 C 389.30 703.32 391.99 703.07 393.96 703.15 C 402.87 703.17 411.78 703.13 420.70 703.19 C 418.74 697.62 421.80 692.31 425.30 688.18 C 424.28 683.33 425.91 678.52 428.69 674.57 C 426.37 669.45 429.01 664.24 432.35 660.34 C 429.25 654.55 431.90 647.49 436.38 643.33 C 449.22 637.64 462.24 632.33 475.15 626.80 C 475.29 623.23 475.29 619.67 475.28 616.11 C 465.54 617.19 459.37 604.77 464.01 596.91 C 466.63 592.40 471.79 590.42 476.59 589.22 C 476.68 584.45 476.82 579.68 476.63 574.91 C 476.70 573.71 475.56 572.99 474.99 572.09 C 470.35 566.98 469.43 558.32 473.95 552.85 C 475.64 550.69 478.14 549.42 480.54 548.20 C 477.98 544.90 476.43 539.97 479.25 536.35 C 480.47 534.45 483.54 533.61 483.43 531.05 C 486.55 452.94 489.57 374.82 492.75 296.71 C 490.32 296.68 487.65 296.88 485.59 295.33 C 478.26 290.45 478.64 277.64 486.54 273.51 C 489.57 271.81 493.10 272.86 495.94 274.43 C 499.52 262.53 507.31 252.16 517.29 244.85 C 517.52 235.95 517.21 227.04 517.42 218.14 M 523.10 251.01 C 523.01 261.33 522.91 271.67 523.13 281.99 C 525.46 286.44 528.96 290.27 531.91 294.36 C 535.57 293.37 539.23 292.43 542.92 291.57 C 541.51 287.52 541.82 283.28 542.58 279.14 C 539.68 267.81 532.14 258.19 523.10 251.01 M 500.25 280.15 C 500.24 284.08 500.28 288.07 498.81 291.80 C 501.91 292.57 505.01 293.35 508.09 294.22 C 510.58 291.29 512.70 288.07 515.03 285.01 C 516.07 283.51 517.47 282.01 517.34 280.03 C 517.41 270.72 517.36 261.40 517.34 252.09 C 508.72 259.18 502.64 269.26 500.25 280.15 M 489.41 278.39 C 484.88 280.63 484.79 288.30 489.07 290.85 C 492.48 292.17 494.71 287.88 494.64 285.01 C 494.88 282.07 492.98 277.60 489.41 278.39 M 550.21 279.18 C 546.28 282.01 546.41 289.54 550.98 291.64 C 554.81 291.90 556.16 286.92 555.64 283.88 C 555.41 281.34 553.16 277.63 550.21 279.18 M 519.55 288.37 C 517.11 291.65 514.54 294.88 512.42 298.38 C 511.83 319.87 511.86 341.42 511.50 362.93 C 510.83 418.05 510.12 473.17 509.48 528.30 C 518.49 528.31 527.50 528.30 536.51 528.30 C 533.95 452.83 531.24 377.37 528.69 301.91 C 528.61 300.69 528.62 299.38 527.77 298.41 C 525.29 295.09 522.96 291.66 520.39 288.42 C 520.18 288.41 519.76 288.38 519.55 288.37 M 534.22 299.60 C 536.87 375.67 539.52 451.75 542.15 527.83 C 547.55 528.63 552.93 529.66 558.23 531.03 C 553.85 452.96 549.37 374.90 544.94 296.84 C 541.36 297.73 537.79 298.64 534.22 299.60 M 489.06 531.09 C 493.92 529.80 498.90 529.06 503.83 528.11 C 504.73 451.95 505.76 375.78 506.59 299.62 C 503.86 298.92 501.14 298.20 498.43 297.47 C 495.11 375.33 492.24 453.22 489.06 531.09 M 500.42 534.53 C 495.37 535.63 490.10 536.21 485.34 538.30 C 481.76 539.47 483.59 545.53 487.08 544.77 C 501.24 542.27 515.54 539.53 530.00 540.32 C 540.11 540.64 550.02 542.77 559.90 544.70 C 562.57 545.73 564.67 542.33 563.92 540.02 C 562.38 537.77 559.44 537.32 557.03 536.56 C 552.41 535.45 547.79 534.16 543.04 533.87 C 531.02 534.05 519.00 533.90 506.98 533.96 C 504.78 533.97 502.58 534.15 500.42 534.53 M 511.43 546.64 C 502.10 547.76 492.92 549.95 484.06 553.02 C 481.34 553.92 478.41 555.31 477.27 558.13 C 475.88 561.86 476.90 566.61 480.02 569.19 C 482.09 569.01 484.11 568.40 486.12 567.89 C 509.88 561.80 535.18 561.12 559.02 567.15 C 561.69 567.78 564.28 568.73 566.99 569.23 C 572.27 566.09 572.16 556.39 565.96 554.10 C 548.91 546.73 529.83 544.44 511.43 546.64 M 511.84 569.10 C 511.80 573.68 511.81 578.27 511.82 582.85 C 519.66 582.21 527.54 582.22 535.39 582.60 C 535.39 578.06 535.40 573.53 535.38 569.00 C 527.53 569.03 519.68 568.88 511.84 569.10 M 482.44 574.60 C 482.27 578.96 482.35 583.32 482.34 587.69 C 489.98 585.71 497.80 584.52 505.59 583.38 C 506.64 579.16 505.73 574.28 506.01 569.81 C 498.04 570.82 490.20 572.57 482.44 574.60 M 541.27 583.07 C 549.29 584.00 557.26 585.38 565.08 587.44 C 565.01 583.27 565.25 579.09 565.00 574.94 C 557.52 571.93 549.34 570.88 541.42 569.52 C 541.16 574.03 541.31 578.55 541.27 583.07 M 509.49 588.71 C 497.77 589.86 486.17 592.17 474.91 595.59 C 471.56 596.55 467.88 599.09 468.10 603.00 C 468.11 606.48 470.75 611.47 474.90 610.09 C 506.71 602.81 540.26 602.04 572.03 609.97 C 576.34 611.85 579.35 606.73 579.33 603.04 C 579.57 599.04 575.72 596.68 572.42 595.57 C 552.27 588.73 530.63 586.67 509.49 588.71 M 511.99 610.27 C 511.65 615.08 511.87 619.90 511.81 624.72 C 519.28 623.72 526.76 624.66 534.24 624.62 C 534.21 619.79 534.25 614.96 534.20 610.14 C 526.79 609.86 519.38 609.96 511.99 610.27 M 481.36 614.54 C 480.38 617.78 481.17 621.55 480.95 624.99 C 488.89 625.03 496.83 624.93 504.77 624.88 C 504.74 620.24 504.74 615.61 504.77 610.98 C 496.91 611.74 489.06 612.84 481.36 614.54 M 539.90 610.54 C 539.91 615.25 539.78 619.96 540.03 624.68 C 547.92 624.46 555.82 624.41 563.71 624.80 C 563.69 621.18 563.69 617.56 563.71 613.94 C 555.88 612.17 547.89 611.17 539.90 610.54 M 481.24 631.10 C 481.24 636.38 481.25 641.66 481.23 646.95 C 491.63 646.01 502.09 646.15 512.49 645.21 C 518.99 644.51 525.52 645.30 532.04 645.24 C 542.65 645.24 553.26 645.32 563.88 645.38 C 563.83 640.40 563.93 635.41 563.79 630.43 C 553.20 629.85 542.61 630.37 532.02 630.28 C 527.00 630.30 521.98 629.52 516.97 630.03 C 505.08 631.06 493.13 630.06 481.24 631.10 M 569.54 631.69 C 569.49 636.57 569.56 641.46 569.48 646.35 C 583.48 649.45 597.67 651.61 611.72 654.52 C 611.20 651.25 610.21 648.10 608.70 645.16 C 595.66 640.64 582.60 636.17 569.54 631.69 M 442.04 646.93 C 437.86 648.31 435.25 653.91 437.53 657.86 C 450.18 654.30 462.94 651.15 475.60 647.59 C 475.57 642.69 475.58 637.79 475.61 632.90 C 464.29 637.26 453.27 642.35 442.04 646.93 M 481.21 652.96 C 481.23 655.44 481.25 657.93 481.28 660.42 C 492.18 659.71 503.12 659.69 514.01 658.86 C 518.68 658.47 523.36 658.99 528.04 659.09 C 539.98 659.38 551.94 659.24 563.87 659.88 C 563.87 657.00 563.86 654.13 563.84 651.26 C 548.59 650.58 533.31 651.19 518.05 650.56 C 505.77 651.37 493.47 651.95 481.21 652.96 M 569.49 652.32 C 569.50 655.16 569.52 658.01 569.57 660.86 C 584.74 663.98 599.92 666.98 615.09 670.10 C 614.11 666.63 612.65 663.33 610.81 660.23 C 597.13 657.14 583.25 655.02 569.49 652.32 M 439.17 663.21 C 435.62 663.84 433.94 667.57 433.13 670.70 C 447.21 666.97 461.63 664.71 475.63 660.66 C 475.60 658.27 475.57 655.88 475.54 653.50 C 463.42 656.76 451.30 660.01 439.17 663.21 M 481.22 666.10 C 481.24 668.97 481.24 671.85 481.25 674.73 C 492.85 673.96 504.45 673.17 516.05 672.39 C 531.99 672.90 547.92 674.48 563.88 673.95 C 563.89 671.11 563.86 668.29 563.75 665.46 C 548.51 664.79 533.23 665.07 517.99 664.37 C 505.74 665.11 493.47 665.35 481.22 666.10 M 437.59 675.42 C 432.73 676.09 430.61 681.66 430.61 686.00 C 445.56 682.06 460.76 679.14 475.62 674.88 C 475.57 672.20 475.59 669.53 475.66 666.87 C 462.97 669.68 450.23 672.37 437.59 675.42 M 569.54 666.67 C 569.51 669.51 569.51 672.34 569.53 675.19 C 585.88 678.50 601.99 682.86 618.39 685.92 C 618.15 682.61 618.00 678.96 615.88 676.24 C 600.54 672.56 584.94 670.06 569.54 666.67 M 481.27 680.38 C 481.24 683.58 481.23 686.79 481.21 689.99 C 492.81 689.52 504.38 688.59 515.96 687.91 C 526.66 688.12 537.34 689.21 548.05 689.06 C 553.33 689.06 558.61 688.46 563.89 688.94 C 563.88 686.09 563.86 683.26 563.79 680.42 C 548.19 679.56 532.59 678.80 516.99 678.04 C 505.08 678.72 493.18 679.63 481.27 680.38 M 434.79 690.74 C 432.41 691.51 429.36 691.56 427.96 693.97 C 426.34 695.94 425.53 698.42 425.81 700.97 C 442.54 698.13 459.08 694.30 475.58 690.36 C 475.57 687.23 475.59 684.10 475.65 680.97 C 462.03 684.22 448.40 687.45 434.79 690.74 M 569.54 681.80 C 569.50 684.58 569.51 687.36 569.57 690.15 C 587.31 693.54 604.79 698.16 622.60 701.22 C 620.73 697.66 619.53 692.25 614.91 691.55 C 599.80 688.22 584.65 685.13 569.54 681.80 M 477.98 695.98 C 474.21 696.20 470.61 697.38 466.96 698.23 C 460.18 699.84 453.35 701.20 446.58 702.81 C 451.36 703.46 456.20 703.06 461.01 703.15 C 492.67 703.11 524.32 703.27 555.97 703.04 C 569.79 702.95 583.66 703.64 597.46 702.79 C 586.33 700.34 575.12 698.26 563.96 695.98 C 553.00 694.99 541.97 694.84 530.98 694.21 C 524.69 694.04 518.39 693.19 512.10 693.79 C 500.73 694.63 489.35 695.16 477.98 695.98 M 394.15 708.86 C 394.15 711.28 394.16 713.70 394.16 716.13 C 429.75 716.19 465.35 716.14 500.94 716.16 C 550.14 716.04 599.34 716.38 648.53 715.98 C 648.50 713.66 648.51 711.34 648.57 709.03 C 643.37 708.58 638.15 708.89 632.94 708.81 C 553.34 708.84 473.74 708.73 394.15 708.86 M 385.69 722.01 C 385.64 724.59 385.68 727.18 385.80 729.77 C 476.18 729.66 566.56 729.73 656.94 729.74 C 656.97 727.16 656.98 724.58 656.98 722.02 C 566.55 722.00 476.12 722.02 385.69 722.01 M 371.90 735.51 C 371.91 736.43 371.91 738.27 371.92 739.18 C 471.57 739.13 571.23 739.32 670.88 739.09 C 670.75 737.84 670.63 736.61 670.51 735.38 C 570.98 735.66 471.44 735.41 371.90 735.51 M 363.08 744.88 C 363.06 748.18 363.06 751.47 363.11 754.78 C 470.71 754.73 578.31 754.76 685.92 754.76 C 685.94 751.46 685.94 748.17 685.93 744.88 C 578.31 744.87 470.70 744.86 363.08 744.88 M 349.65 761.82 C 349.65 763.92 349.65 766.03 349.66 768.15 C 464.11 768.16 578.55 768.16 693.00 768.15 C 692.99 766.03 692.99 763.92 693.00 761.81 C 578.55 761.81 464.10 761.79 349.65 761.82 M 337.01 775.28 C 336.93 778.25 336.91 781.23 336.94 784.22 C 459.88 784.18 582.82 784.34 705.75 784.14 C 705.72 781.19 705.71 778.24 705.72 775.30 C 582.81 775.28 459.91 775.32 337.01 775.28 M 325.27 790.16 C 325.26 792.07 325.26 793.98 325.25 795.91 C 455.96 795.99 586.66 795.91 717.37 795.95 C 717.36 794.00 717.36 792.06 717.37 790.13 C 586.67 790.16 455.97 790.10 325.27 790.16 M 315.51 810.52 C 452.76 810.37 590.01 810.51 727.26 810.44 C 727.27 807.49 727.27 804.55 727.26 801.60 C 590.02 801.52 452.77 801.69 315.53 801.52 C 315.31 804.51 315.31 807.52 315.51 810.52 M 299.96 816.22 C 299.82 819.24 299.80 822.26 299.86 825.29 C 447.51 825.29 595.17 825.33 742.82 825.27 C 742.81 822.26 742.81 819.26 742.80 816.26 C 595.19 816.24 447.57 816.31 299.96 816.22 M 181.91 818.82 C 181.74 821.04 181.83 823.30 182.57 825.44 C 185.23 833.67 190.25 840.83 194.95 848.00 C 202.13 859.54 207.54 872.36 209.54 885.86 C 211.75 900.32 209.59 915.33 203.79 928.74 C 200.12 937.77 193.96 945.58 190.84 954.86 C 189.28 959.59 187.70 964.82 189.28 969.75 C 190.36 973.00 194.36 973.01 197.10 972.20 C 207.17 969.45 214.16 961.21 222.69 955.74 C 233.66 948.32 245.45 940.46 259.01 939.39 C 421.67 940.26 584.33 940.29 746.99 939.44 C 752.44 939.57 758.03 938.76 763.34 940.39 C 774.78 943.42 784.85 949.99 794.45 956.70 C 801.78 961.59 807.96 968.38 816.40 971.49 C 819.03 972.39 822.18 973.34 824.81 971.92 C 827.24 970.15 827.24 966.73 827.08 964.03 C 826.09 954.93 821.63 946.72 817.09 938.96 C 810.57 927.70 806.29 915.03 805.52 902.00 C 804.08 880.37 812.60 859.32 824.85 841.88 C 829.01 834.83 834.35 827.44 833.88 818.88 C 830.05 818.18 826.31 819.55 822.87 821.07 C 813.82 825.08 805.83 831.03 797.85 836.80 C 786.32 844.65 773.39 851.98 759.05 852.07 C 591.72 852.08 424.38 852.07 257.05 852.07 C 246.44 852.14 236.35 848.00 227.31 842.76 C 216.57 836.71 207.40 828.19 196.31 822.69 C 191.84 820.51 187.04 818.10 181.91 818.82 M 288.19 830.97 C 288.18 835.24 288.18 839.52 288.19 843.81 C 443.60 843.84 599.01 843.79 754.43 843.83 C 754.50 839.54 754.48 835.25 754.46 830.96 C 599.03 830.95 443.61 830.94 288.19 830.97 Z" />
<path fill="#1f1a17" opacity="1.00" d=" M 204.59 835.64 C 207.19 834.77 210.00 835.52 212.34 836.78 C 220.94 841.55 228.17 848.53 237.06 852.80 C 246.73 857.12 257.51 857.69 267.94 857.82 C 425.96 857.82 583.98 857.81 742.00 857.82 C 754.59 857.83 767.78 857.90 779.44 852.46 C 788.21 848.03 795.41 841.05 804.09 836.45 C 808.20 834.05 813.85 835.52 816.32 839.56 C 817.76 842.85 815.53 846.18 814.03 849.01 C 807.19 860.49 799.50 872.25 798.22 885.90 C 797.24 897.57 798.66 909.53 802.69 920.56 C 806.91 930.61 814.11 939.35 816.99 949.98 C 818.30 954.10 815.49 959.18 810.95 959.29 C 807.30 958.90 804.38 956.39 801.43 954.45 C 790.86 946.85 779.87 939.27 767.17 935.75 C 758.04 932.93 748.41 933.81 739.00 933.70 C 584.32 933.87 429.64 933.87 274.96 933.70 C 267.30 933.81 259.51 933.12 251.98 934.92 C 238.67 937.78 227.05 945.32 216.16 953.16 C 212.63 955.49 209.28 958.59 204.97 959.30 C 200.40 959.29 197.47 954.21 198.76 950.06 C 200.87 941.94 205.74 934.91 209.62 927.57 C 214.04 920.28 216.06 911.85 217.17 903.48 C 218.11 895.69 218.29 887.69 216.61 879.99 C 214.06 869.28 208.25 859.78 202.59 850.48 C 201.10 847.80 199.27 845.14 198.96 842.03 C 198.72 838.76 201.90 836.65 204.59 835.64 M 204.45 841.82 C 208.74 850.78 214.86 858.78 218.55 868.06 C 225.34 883.08 224.42 900.38 220.46 916.03 C 218.19 925.74 212.16 933.86 207.77 942.65 C 206.09 946.17 203.81 949.77 204.33 953.85 C 209.34 951.64 213.46 947.92 218.03 944.98 C 230.97 935.90 245.88 928.33 262.02 928.06 C 423.35 928.22 584.68 928.24 746.02 928.06 C 751.33 928.04 756.69 927.85 761.95 928.83 C 775.11 930.99 787.08 937.53 797.90 945.09 C 802.49 947.92 806.44 951.97 811.64 953.70 C 811.65 949.04 809.14 945.00 807.12 940.99 C 802.97 932.93 797.56 925.38 795.42 916.43 C 791.44 900.93 790.38 883.80 796.91 868.82 C 800.63 859.32 806.72 851.05 811.33 842.00 C 809.86 841.01 808.10 840.47 806.52 841.54 C 798.73 845.84 792.03 851.85 784.33 856.28 C 775.69 861.08 765.70 862.72 755.95 863.22 C 744.64 863.70 733.32 863.37 722.01 863.47 C 571.32 863.46 420.63 863.47 269.93 863.46 C 258.90 863.43 247.57 862.95 237.15 858.95 C 226.73 854.94 218.79 846.64 209.04 841.45 C 207.53 840.42 205.91 841.19 204.45 841.82 Z" />
<path fill="#1f1a17" opacity="1.00" d=" M 231.42 879.27 C 236.23 879.26 241.04 879.27 245.85 879.26 C 247.77 886.25 249.44 893.31 251.48 900.27 C 253.35 893.26 255.27 886.26 257.18 879.27 C 262.07 879.27 266.97 879.27 271.86 879.26 C 271.87 880.77 271.87 882.29 271.89 883.83 C 270.54 884.21 268.00 883.83 268.13 885.93 C 267.95 893.53 267.88 901.16 268.22 908.77 C 269.44 908.96 270.66 909.15 271.89 909.34 C 271.88 910.88 271.87 912.43 271.87 913.99 C 266.75 914.00 261.63 913.99 256.51 914.00 C 256.50 912.42 256.50 910.85 256.50 909.30 C 257.39 909.19 259.15 908.97 260.04 908.86 C 260.74 901.17 260.18 893.43 260.36 885.73 C 257.52 895.05 255.16 904.52 252.62 913.94 C 251.12 913.96 249.63 913.98 248.14 914.02 C 245.58 904.94 243.45 895.74 240.58 886.77 C 240.68 893.68 240.45 900.60 240.68 907.51 C 240.61 909.56 243.16 908.90 244.50 909.39 C 244.50 910.89 244.51 912.40 244.54 913.93 C 240.16 914.05 235.78 914.00 231.40 913.97 C 231.39 912.41 231.39 910.87 231.38 909.34 C 232.55 909.16 233.72 908.99 234.89 908.83 C 235.58 901.25 235.21 893.60 235.15 886.01 C 235.43 883.76 232.76 884.25 231.37 883.79 C 231.39 882.27 231.40 880.77 231.42 879.27 Z" />
<path fill="#1f1a17" opacity="1.00" d=" M 287.62 879.29 C 290.02 879.26 292.42 879.26 294.82 879.27 C 298.19 888.52 301.35 897.87 304.85 907.09 C 305.14 908.67 306.73 908.94 308.00 909.45 C 308.02 910.95 308.03 912.47 308.05 914.00 C 303.00 914.00 297.96 914.00 292.92 914.00 C 292.92 912.45 292.92 910.91 292.93 909.38 C 293.62 909.23 295.01 908.93 295.71 908.78 C 296.49 906.89 295.06 904.85 294.80 902.95 C 291.52 902.90 288.23 902.91 284.95 902.92 C 284.29 904.87 283.54 906.86 283.59 908.97 C 284.37 909.04 285.94 909.19 286.72 909.26 C 286.72 910.82 286.72 912.38 286.73 913.96 C 282.59 914.02 278.45 914.02 274.32 913.96 C 274.32 912.40 274.31 910.86 274.31 909.32 C 274.94 909.15 276.20 908.82 276.83 908.65 C 280.77 899.00 284.01 889.07 287.62 879.29 M 289.85 888.78 C 288.73 891.82 287.72 894.90 286.66 897.97 C 288.79 897.96 290.91 897.97 293.04 897.98 C 292.06 894.88 291.17 891.75 289.85 888.78 Z" />
<path fill="#1f1a17" opacity="1.00" d=" M 310.58 879.28 C 315.79 879.27 321.01 879.23 326.22 879.30 C 326.19 880.82 326.18 882.35 326.15 883.90 C 324.69 884.11 322.26 883.88 322.40 886.03 C 322.33 893.53 322.03 901.07 322.60 908.56 C 325.31 908.38 328.36 908.48 330.57 906.62 C 332.85 904.88 333.93 902.14 335.04 899.61 C 336.41 900.12 337.79 900.64 339.17 901.17 C 337.77 905.44 336.36 909.72 334.96 914.00 C 326.81 913.96 318.66 914.09 310.51 913.93 C 310.53 912.38 310.54 910.86 310.55 909.34 C 311.73 909.16 312.92 908.98 314.11 908.81 C 314.72 901.21 314.45 893.54 314.31 885.93 C 314.46 883.77 311.85 884.22 310.50 883.77 C 310.52 882.26 310.55 880.76 310.58 879.28 Z" />
<path fill="#1f1a17" opacity="1.00" d=" M 352.64 879.31 C 355.03 879.26 357.43 879.26 359.84 879.26 C 363.23 888.52 366.39 897.88 369.89 907.11 C 370.19 908.67 371.78 908.95 373.05 909.47 C 373.06 910.97 373.06 912.47 373.07 914.00 C 368.03 914.00 362.99 914.00 357.95 914.00 C 357.95 912.41 357.95 910.84 357.95 909.28 C 358.73 909.17 360.29 908.96 361.07 908.85 C 360.83 906.83 360.41 904.85 359.82 902.92 C 356.54 902.91 353.26 902.91 349.98 902.91 C 349.33 904.87 348.56 906.85 348.63 908.97 C 349.41 909.05 350.98 909.19 351.76 909.26 C 351.74 910.83 351.74 912.40 351.74 913.99 C 347.60 914.00 343.47 914.02 339.34 913.96 C 339.35 912.40 339.34 910.86 339.34 909.33 C 339.97 909.16 341.24 908.81 341.88 908.64 C 345.79 898.98 349.06 889.08 352.64 879.31 M 354.87 888.80 C 353.75 891.83 352.75 894.91 351.69 897.97 C 353.82 897.96 355.95 897.96 358.08 897.97 C 357.08 894.89 356.22 891.75 354.87 888.80 Z" />
<path fill="#1f1a17" opacity="1.00" d=" M 375.53 879.27 C 379.86 879.27 384.19 879.25 388.52 879.30 C 391.54 885.94 394.63 892.55 397.69 899.19 C 397.93 894.46 398.05 889.71 397.65 885.00 C 396.85 883.82 395.17 884.23 394.00 883.87 C 394.00 882.32 394.01 880.78 394.02 879.26 C 398.42 879.28 402.83 879.25 407.23 879.29 C 407.21 880.80 407.20 882.33 407.19 883.86 C 405.78 884.17 403.25 883.90 403.43 886.05 C 403.19 895.35 403.41 904.68 403.33 913.99 C 401.15 913.99 398.98 914.00 396.82 914.03 C 392.78 905.59 389.00 897.03 384.93 888.61 C 384.97 895.35 384.60 902.10 385.16 908.83 C 386.36 908.99 387.57 909.16 388.79 909.34 C 388.77 910.88 388.76 912.42 388.76 913.99 C 384.32 913.99 379.88 914.05 375.45 913.93 C 375.46 912.39 375.47 910.86 375.49 909.34 C 376.67 909.16 377.87 908.98 379.07 908.82 C 379.64 901.20 379.40 893.53 379.25 885.90 C 379.35 883.77 376.74 884.21 375.39 883.70 C 375.44 882.22 375.48 880.74 375.53 879.27 Z" />
<path fill="#1f1a17" opacity="1.00" d=" M 415.07 883.99 C 419.68 878.46 428.03 877.22 434.29 880.58 C 435.19 879.02 436.94 879.26 438.47 879.19 C 439.43 883.06 440.42 886.91 441.36 890.79 C 439.96 891.26 438.57 891.75 437.18 892.24 C 435.22 888.97 433.06 885.04 428.93 884.33 C 424.66 883.48 421.06 887.23 420.20 891.13 C 419.06 896.17 419.42 902.04 422.69 906.25 C 425.09 909.39 430.27 909.90 433.06 907.01 C 434.44 905.27 433.71 902.84 433.86 900.82 C 432.45 900.57 431.03 900.33 429.63 900.15 C 429.62 898.59 429.61 897.04 429.61 895.50 C 434.82 895.50 440.04 895.43 445.25 895.55 C 445.23 897.08 445.21 898.62 445.20 900.18 C 444.07 900.36 442.95 900.56 441.83 900.78 C 441.54 905.16 441.64 909.56 441.67 913.96 C 440.10 913.97 438.52 913.98 436.96 914.01 C 436.67 913.41 436.09 912.19 435.80 911.58 C 430.78 914.96 423.82 915.77 418.61 912.33 C 409.47 906.40 408.13 892.09 415.07 883.99 Z" />
<path fill="#1f1a17" opacity="1.00" d=" M 459.45 879.27 C 464.62 879.26 469.80 879.28 474.98 879.26 C 474.99 880.79 474.99 882.33 475.01 883.89 C 473.81 884.26 471.97 883.76 471.36 885.17 C 470.86 888.79 471.20 892.47 471.13 896.12 C 474.82 892.17 479.03 888.69 482.32 884.39 C 481.52 884.27 479.93 884.04 479.14 883.93 C 479.14 882.36 479.14 880.81 479.16 879.26 C 483.97 879.27 488.78 879.26 493.59 879.27 C 493.59 880.75 493.60 882.24 493.62 883.75 C 488.46 884.99 485.60 890.05 481.59 893.15 C 484.91 897.91 488.01 902.84 491.47 907.50 C 492.24 908.89 493.85 909.08 495.26 909.44 C 495.26 910.94 495.26 912.46 495.27 914.00 C 489.90 914.00 484.52 914.00 479.15 914.00 C 479.14 912.41 479.14 910.83 479.14 909.27 C 479.97 909.18 481.62 909.01 482.45 908.92 C 480.61 905.25 478.17 901.95 476.01 898.48 C 474.35 899.96 472.71 901.47 471.07 902.99 C 471.12 904.65 471.05 906.34 471.36 908.01 C 471.67 909.59 473.87 908.89 475.00 909.36 C 475.00 910.89 475.00 912.44 475.01 914.00 C 469.80 913.96 464.58 914.08 459.38 913.91 C 459.40 912.38 459.41 910.85 459.43 909.34 C 460.60 909.15 461.78 908.96 462.97 908.79 C 463.51 901.19 463.30 893.54 463.14 885.94 C 463.33 883.85 460.68 884.27 459.40 883.78 C 459.41 882.26 459.43 880.76 459.45 879.27 Z" />
<path fill="#1f1a17" opacity="1.00" d=" M 496.69 879.28 C 501.89 879.26 507.10 879.26 512.30 879.28 C 512.27 880.81 512.25 882.36 512.23 883.91 C 511.02 884.31 508.91 883.70 508.59 885.41 C 508.12 889.57 508.48 893.79 508.37 897.98 C 508.48 900.91 508.13 904.23 509.95 906.75 C 512.73 910.34 519.36 908.56 519.92 904.04 C 520.58 898.03 520.25 891.95 520.19 885.92 C 520.41 883.73 517.76 884.25 516.42 883.78 C 516.44 882.26 516.46 880.76 516.49 879.27 C 520.89 879.26 525.29 879.27 529.69 879.27 C 529.68 880.78 529.69 882.29 529.71 883.82 C 528.42 884.10 527.15 884.40 525.88 884.72 C 525.48 891.44 526.22 898.22 525.38 904.92 C 524.61 910.43 519.41 914.55 513.93 914.55 C 508.37 915.06 502.36 911.60 501.02 906.00 C 499.77 898.84 501.26 891.49 500.08 884.33 C 498.91 884.16 497.75 884.00 496.60 883.84 C 496.63 882.31 496.66 880.79 496.69 879.28 Z" />
<path fill="#1f1a17" opacity="1.00" d=" M 535.81 885.80 C 539.98 878.86 549.63 876.74 556.61 880.58 C 557.44 878.99 559.26 879.30 560.77 879.15 C 561.84 883.36 562.91 887.57 563.95 891.79 C 562.48 892.19 561.02 892.58 559.56 892.97 C 557.87 889.56 555.87 885.62 551.94 884.48 C 548.03 883.31 544.03 886.07 542.75 889.73 C 540.81 895.02 541.42 901.50 545.11 905.91 C 546.96 908.19 550.14 909.14 552.98 908.42 C 556.73 907.51 559.34 904.39 561.65 901.51 C 562.79 902.44 563.94 903.38 565.10 904.33 C 561.66 909.82 556.26 914.46 549.50 914.68 L 549.48 916.03 C 551.93 915.84 555.22 917.07 554.91 920.07 C 554.93 924.60 548.53 926.31 545.56 923.47 C 544.67 922.43 544.61 921.35 545.38 920.22 C 547.29 919.59 549.18 922.46 550.77 920.94 C 552.16 918.11 548.52 917.75 546.62 917.75 C 546.73 916.68 546.84 915.62 546.97 914.58 C 534.14 912.73 528.90 895.87 535.81 885.80 Z" />
<path fill="#1f1a17" opacity="1.00" d=" M 568.24 879.27 C 577.13 879.27 586.01 879.27 594.90 879.27 C 596.12 882.92 597.33 886.59 598.54 890.25 C 597.18 890.76 595.82 891.29 594.47 891.82 C 593.17 889.32 591.80 886.38 588.92 885.42 C 586.02 884.54 582.94 884.86 579.96 884.80 C 579.96 887.73 579.96 890.66 579.97 893.60 C 581.49 893.33 583.20 893.58 584.61 892.80 C 585.08 891.41 585.13 889.93 585.35 888.51 C 586.65 888.52 587.96 888.55 589.27 888.58 C 589.25 893.46 589.26 898.35 589.26 903.24 C 588.29 903.24 586.34 903.25 585.36 903.25 C 585.17 901.88 585.01 900.50 584.67 899.18 C 583.40 898.16 581.60 898.48 580.10 898.15 C 579.90 901.50 579.92 904.87 580.06 908.23 C 583.87 908.48 588.25 908.90 591.46 906.37 C 593.71 904.70 594.86 902.07 595.94 899.58 C 597.30 900.07 598.68 900.58 600.06 901.10 C 598.66 905.40 597.26 909.69 595.86 914.00 C 586.65 914.00 577.44 914.00 568.23 913.99 C 568.22 912.44 568.22 910.91 568.21 909.38 C 569.62 908.94 572.38 909.33 572.02 907.05 C 572.12 900.02 572.19 892.98 571.98 885.96 C 572.23 883.74 569.53 884.27 568.20 883.82 C 568.21 882.29 568.22 880.77 568.24 879.27 Z" />
<path fill="#1f1a17" opacity="1.00" d=" M 605.65 885.59 C 609.89 878.78 619.40 876.84 626.33 880.54 C 627.22 878.98 628.98 879.27 630.51 879.21 C 631.53 883.36 632.55 887.52 633.68 891.66 C 632.25 892.12 630.82 892.60 629.40 893.07 C 627.67 889.89 625.94 886.22 622.41 884.73 C 618.97 883.26 614.87 885.08 613.16 888.28 C 610.85 892.45 610.91 897.69 612.53 902.09 C 613.82 905.57 616.93 908.93 620.94 908.64 C 625.52 908.53 628.70 904.77 631.39 901.53 C 632.51 902.44 633.65 903.38 634.80 904.30 C 631.37 909.84 625.92 914.55 619.08 914.65 C 618.88 917.27 622.47 915.60 623.61 917.30 C 626.16 920.01 623.59 924.67 620.09 924.74 C 617.81 925.29 613.82 923.91 614.69 920.99 C 616.03 918.18 619.33 923.42 620.54 920.56 C 621.64 918.03 617.96 917.71 616.33 917.79 C 616.44 916.71 616.56 915.65 616.68 914.60 C 603.76 912.71 598.54 895.66 605.65 885.59 Z" />
<path fill="#1f1a17" opacity="1.00" d=" M 636.52 879.27 C 641.20 879.26 645.88 879.27 650.56 879.27 C 650.57 880.77 650.59 882.28 650.63 883.80 C 649.99 883.99 648.71 884.36 648.07 884.55 C 649.12 891.46 651.19 898.17 652.66 905.01 C 653.63 901.67 654.62 898.35 655.60 895.02 C 657.04 891.65 655.34 888.08 654.10 884.94 C 653.62 884.64 652.66 884.06 652.18 883.77 C 652.15 882.25 652.14 880.76 652.14 879.27 C 656.58 879.27 661.03 879.26 665.48 879.27 C 665.49 880.75 665.51 882.25 665.54 883.75 C 664.44 884.07 663.36 884.40 662.28 884.76 C 663.50 890.93 665.09 897.02 666.51 903.15 C 668.19 897.08 669.59 890.94 671.00 884.81 C 669.90 884.44 668.83 884.04 667.78 883.62 C 667.68 882.16 667.72 880.71 667.72 879.28 C 671.78 879.26 675.83 879.27 679.90 879.26 C 679.88 880.77 679.88 882.29 679.88 883.83 C 678.51 884.25 676.88 884.73 676.65 886.39 C 673.92 895.53 671.65 904.81 669.09 914.00 C 666.78 913.99 664.48 913.99 662.18 913.99 C 660.95 909.35 659.69 904.72 658.50 900.08 C 657.15 904.67 655.76 909.26 654.58 913.91 C 652.14 913.99 649.70 914.01 647.27 913.99 C 644.74 904.71 642.44 895.35 639.70 886.13 C 639.50 884.47 637.70 884.31 636.49 883.72 C 636.50 882.22 636.51 880.74 636.52 879.27 Z" />
<path fill="#1f1a17" opacity="1.00" d=" M 694.22 879.27 C 696.62 879.26 699.03 879.26 701.44 879.31 C 705.00 889.11 708.20 899.06 712.16 908.71 C 712.78 908.87 714.02 909.20 714.64 909.37 C 714.62 910.88 714.62 912.41 714.64 913.94 C 709.58 914.05 704.53 913.98 699.47 914.00 C 699.48 912.42 699.50 910.85 699.54 909.31 C 704.19 909.95 702.09 905.35 701.26 902.88 C 697.97 902.91 694.69 902.88 691.41 903.04 C 691.02 904.89 689.80 906.78 690.27 908.72 C 691.02 908.88 692.52 909.22 693.27 909.39 C 693.27 910.91 693.27 912.45 693.28 914.00 C 689.15 914.00 685.02 914.00 680.90 914.00 C 680.90 912.46 680.90 910.94 680.93 909.43 C 682.19 908.95 683.79 908.65 684.11 907.09 C 687.60 897.86 690.83 888.53 694.22 879.27 M 693.31 898.02 C 695.40 897.98 697.51 897.96 699.62 897.96 C 698.59 894.82 697.59 891.68 696.57 888.54 C 695.33 891.64 694.25 894.81 693.31 898.02 Z" />
<path fill="#1f1a17" opacity="1.00" d=" M 716.96 879.27 C 723.30 879.29 729.65 879.23 735.99 879.29 C 739.21 879.39 742.78 879.50 745.38 881.70 C 749.61 884.96 749.94 892.31 745.63 895.65 C 744.01 897.05 741.96 897.77 740.01 898.57 C 742.68 901.71 744.99 905.17 747.81 908.19 C 748.85 909.30 750.56 909.02 751.93 909.40 C 751.90 910.92 751.88 912.45 751.88 914.00 C 748.44 913.72 744.70 914.56 741.44 913.60 C 738.31 909.35 735.47 904.88 732.46 900.55 C 731.83 898.99 730.15 898.91 728.73 898.87 C 728.67 902.18 728.65 905.52 728.99 908.83 C 730.18 908.99 731.37 909.16 732.58 909.34 C 732.57 910.86 732.57 912.40 732.60 913.95 C 727.38 914.05 722.16 913.98 716.95 914.00 C 716.94 912.44 716.94 910.90 716.96 909.37 C 718.12 908.91 720.54 909.55 720.63 907.74 C 720.91 900.53 720.80 893.29 720.69 886.07 C 720.97 883.86 718.30 884.43 716.96 884.04 C 716.94 882.44 716.95 880.85 716.96 879.27 M 728.72 884.96 C 728.71 887.96 728.71 890.96 728.72 893.97 C 731.83 893.83 735.16 894.37 738.12 893.15 C 741.14 891.84 741.26 886.71 738.08 885.54 C 735.07 884.57 731.82 885.08 728.72 884.96 Z" />
<path fill="#1f1a17" opacity="1.00" d=" M 755.82 906.81 C 759.34 897.71 762.25 888.35 765.95 879.33 C 768.27 879.17 770.60 879.26 772.93 879.26 C 776.35 888.42 779.44 897.70 782.90 906.84 C 783.19 908.50 784.74 909.02 786.17 909.47 C 786.17 910.96 786.19 912.47 786.21 914.00 C 781.16 914.00 776.11 914.00 771.07 914.00 C 771.06 912.45 771.05 910.91 771.06 909.39 C 771.75 909.23 773.13 908.92 773.82 908.76 C 774.78 906.97 773.16 904.81 772.92 902.92 C 769.64 902.91 766.36 902.91 763.09 902.92 C 762.43 904.85 761.83 906.82 761.65 908.88 C 762.46 908.98 764.07 909.17 764.88 909.27 C 764.86 910.83 764.85 912.41 764.86 914.00 C 760.74 914.00 756.61 914.00 752.50 914.00 C 752.48 912.46 752.48 910.95 752.49 909.44 C 753.98 909.07 755.44 908.44 755.82 906.81 M 764.83 897.97 C 766.95 897.96 769.07 897.96 771.21 897.97 C 770.20 894.89 769.24 891.79 768.15 888.75 C 766.84 891.74 765.86 894.87 764.83 897.97 Z" />
</g>
<g id="#00923fff">
<path fill="#00923f" opacity="1.00" d=" M 60.95 362.21 C 210.95 264.56 361.06 167.06 511.03 69.35 C 573.56 110.29 635.83 151.66 698.27 192.76 C 765.35 237.02 832.43 281.28 899.51 325.55 C 919.28 338.69 939.24 351.56 958.89 364.88 C 919.75 576.86 880.75 788.88 841.77 1000.89 C 620.84 1001.35 399.89 1001.69 178.96 1001.99 C 139.61 788.73 100.22 575.48 60.95 362.21 M 523.54 93.71 C 502.11 157.81 480.60 221.88 459.19 285.99 C 458.24 288.03 458.28 292.08 455.04 291.32 C 386.63 291.30 318.22 291.33 249.81 291.31 C 251.41 292.70 253.06 294.04 254.79 295.27 C 309.33 335.17 363.64 375.39 418.27 415.16 C 416.82 421.15 414.55 426.89 412.75 432.77 C 393.39 492.43 373.59 551.96 354.50 611.70 C 363.95 605.52 372.95 598.65 382.23 592.20 C 414.51 569.32 446.63 546.20 479.02 523.46 C 478.69 526.36 479.72 529.99 476.90 531.93 C 472.86 535.59 472.33 541.54 473.91 546.51 C 464.15 553.03 464.21 567.90 471.94 575.97 C 471.98 579.18 471.97 582.40 471.93 585.62 C 467.07 587.29 462.35 590.16 459.81 594.78 C 454.44 604.33 460.07 617.88 470.71 620.72 C 470.61 621.49 470.42 623.03 470.33 623.80 C 459.37 628.25 448.55 633.03 437.63 637.57 C 435.83 638.37 433.88 639.00 432.42 640.38 C 427.95 645.59 424.72 652.73 426.94 659.64 C 423.91 663.75 422.29 668.87 423.37 673.97 C 421.22 677.97 419.97 682.40 420.21 686.97 C 417.69 690.36 415.80 694.22 415.24 698.44 C 407.83 698.47 400.42 698.40 393.02 698.46 C 390.30 698.46 387.38 699.34 385.72 701.62 C 383.40 704.33 383.83 708.14 383.76 711.46 C 381.38 711.79 378.75 712.19 377.18 714.23 C 374.49 717.20 375.47 721.48 375.29 725.12 C 371.52 725.32 367.04 724.25 363.99 727.11 C 361.83 728.87 361.55 731.76 361.41 734.36 C 357.77 734.31 353.89 736.26 352.99 740.02 C 352.39 743.79 352.79 747.62 352.69 751.43 C 348.97 751.56 344.51 750.62 341.59 753.56 C 338.41 756.45 339.42 761.08 339.26 764.89 C 335.80 765.01 331.69 764.25 328.97 766.95 C 325.42 770.20 326.81 775.46 326.56 779.72 C 323.31 779.76 319.45 779.36 317.06 782.05 C 314.54 784.37 314.92 788.01 314.85 791.12 C 312.22 791.23 309.25 791.26 307.31 793.35 C 303.90 796.61 305.26 801.70 304.99 805.89 C 300.64 806.22 295.44 804.67 291.87 807.92 C 288.35 811.13 289.71 816.33 289.46 820.55 C 287.66 820.56 285.84 820.51 284.05 820.74 C 280.58 821.20 277.82 824.48 277.86 827.97 C 277.70 833.48 277.85 839.01 277.81 844.53 C 270.86 844.52 263.91 844.54 256.96 844.54 C 245.37 844.54 234.82 838.81 225.32 832.72 C 214.33 825.22 203.78 816.52 190.97 812.29 C 186.59 810.94 181.14 810.14 177.38 813.37 C 173.97 816.24 173.82 821.18 174.74 825.22 C 176.70 833.30 181.07 840.54 185.58 847.44 C 192.19 857.05 197.52 867.64 200.47 878.97 C 204.20 892.95 203.54 908.05 198.51 921.62 C 194.55 933.33 186.22 943.03 182.87 955.00 C 180.91 961.66 179.65 969.78 184.13 975.73 C 187.82 980.53 194.67 980.95 200.04 979.18 C 211.46 975.78 219.48 966.48 229.32 960.32 C 238.63 954.22 248.57 947.62 259.99 946.90 C 425.35 947.82 590.73 947.80 756.09 946.90 C 761.29 947.01 766.19 949.05 770.87 951.14 C 779.39 955.21 787.18 960.64 794.75 966.24 C 801.13 971.45 807.76 976.77 815.78 979.20 C 820.30 980.56 825.70 980.72 829.63 977.70 C 833.82 974.55 835.00 968.88 834.61 963.91 C 833.69 949.29 823.89 937.70 818.43 924.67 C 813.49 912.79 811.74 899.58 813.69 886.85 C 815.77 873.02 821.69 860.01 829.49 848.50 C 834.01 841.71 838.34 834.62 840.66 826.73 C 841.90 822.36 842.20 816.80 838.53 813.48 C 834.84 810.23 829.43 810.87 825.08 812.20 C 816.15 815.08 808.21 820.27 800.56 825.58 C 789.75 833.48 778.30 841.60 764.85 844.02 C 764.66 838.04 765.24 832.00 764.54 826.05 C 763.31 821.01 757.60 820.06 753.20 820.56 C 752.92 816.42 754.28 811.37 750.98 808.12 C 747.45 804.61 742.03 806.27 737.61 805.84 C 737.43 801.70 738.69 796.72 735.45 793.45 C 733.51 791.30 730.47 791.23 727.81 791.11 C 727.70 788.09 728.13 784.58 725.78 782.25 C 723.41 779.37 719.43 779.73 716.10 779.73 C 715.81 775.55 717.21 770.47 713.90 767.16 C 711.20 764.23 706.93 765.01 703.37 764.87 C 703.22 761.36 704.13 757.30 701.76 754.33 C 700.50 752.51 698.30 751.92 696.33 751.26 C 695.88 746.69 697.53 741.41 694.70 737.40 C 691.53 733.25 685.77 734.74 681.29 734.53 C 681.06 731.93 680.91 729.00 678.74 727.18 C 675.72 724.24 671.14 725.32 667.36 725.12 C 667.18 721.55 668.13 717.41 665.63 714.42 C 664.07 712.28 661.38 711.73 658.92 711.45 C 658.78 708.24 659.26 704.59 657.16 701.90 C 655.58 699.60 652.78 698.51 650.08 698.48 C 644.27 698.37 638.47 698.46 632.66 698.47 C 631.53 695.51 630.00 692.73 628.70 689.85 C 628.49 687.23 628.84 684.59 628.53 681.98 C 628.08 677.16 625.64 672.84 625.08 668.05 C 624.62 663.85 621.59 660.30 621.92 655.99 C 622.04 649.76 620.00 643.59 616.56 638.45 C 615.50 636.82 613.75 635.89 611.97 635.29 C 599.99 631.20 588.04 627.05 576.05 622.98 C 574.91 622.74 574.13 622.07 573.71 620.99 C 585.36 620.67 592.79 606.86 588.45 596.56 C 586.28 590.97 580.85 587.63 575.49 585.57 C 575.51 582.51 575.29 579.44 575.57 576.39 C 578.24 572.35 580.92 568.03 581.06 563.01 C 581.87 556.53 578.51 550.28 573.47 546.39 C 575.80 540.52 573.65 533.78 568.62 530.08 C 568.40 527.33 568.25 524.57 568.11 521.82 C 609.69 551.77 651.09 581.97 692.76 611.80 C 692.05 608.20 690.80 604.76 689.69 601.28 C 669.76 538.52 649.71 475.81 629.83 413.03 C 685.80 372.40 741.99 332.07 797.92 291.38 C 727.96 290.91 658.01 290.34 588.06 289.84 C 567.77 228.06 547.68 166.21 527.46 104.41 C 526.21 100.82 525.39 97.05 523.54 93.71 Z" />
</g>
<g id="#fff500ff">
<path fill="#fff500" opacity="1.00" d=" M 523.64 117.14 C 543.42 177.17 562.81 237.33 582.60 297.36 C 646.70 297.74 710.79 298.25 774.89 298.77 C 723.64 335.95 672.28 372.99 620.97 410.09 C 640.31 470.97 659.74 531.82 679.05 592.71 C 641.87 565.89 604.77 538.94 567.56 512.16 C 563.56 442.02 559.62 371.87 555.58 301.73 C 564.37 297.99 568.44 287.06 564.82 278.35 C 562.67 272.12 556.39 267.96 549.81 268.31 C 545.01 257.68 537.23 248.59 527.86 241.70 C 527.51 233.52 528.02 225.32 527.62 217.14 C 527.38 211.60 520.16 208.45 515.83 211.83 C 511.82 214.50 512.70 219.80 512.62 223.94 C 512.46 230.09 513.04 236.31 512.37 242.43 C 510.84 244.23 508.91 245.64 507.22 247.28 C 501.09 253.06 496.54 260.31 493.14 267.97 C 489.70 267.90 486.02 267.97 483.11 270.07 C 474.59 275.57 473.24 288.70 479.70 296.29 C 481.75 298.95 484.91 300.32 487.90 301.64 C 484.89 372.36 482.26 443.10 479.40 513.82 C 442.42 540.12 405.48 566.48 368.47 592.73 C 388.06 532.73 407.53 472.69 427.31 412.75 C 375.90 374.57 324.05 336.98 272.58 298.88 C 335.99 298.75 399.40 298.87 462.80 298.82 C 483.08 238.26 503.37 177.70 523.64 117.14 Z" />
</g>
<g id="#007cc3ff">
<path fill="#007cc3" opacity="1.00" d=" M 523.10 251.01 C 532.14 258.19 539.68 267.81 542.58 279.14 C 541.82 283.28 541.51 287.52 542.92 291.57 C 539.23 292.43 535.57 293.37 531.91 294.36 C 528.96 290.27 525.46 286.44 523.13 281.99 C 522.91 271.67 523.01 261.33 523.10 251.01 Z" />
<path fill="#007cc3" opacity="1.00" d=" M 500.25 280.15 C 502.64 269.26 508.72 259.18 517.34 252.09 C 517.36 261.40 517.41 270.72 517.34 280.03 C 517.47 282.01 516.07 283.51 515.03 285.01 C 512.70 288.07 510.58 291.29 508.09 294.22 C 505.01 293.35 501.91 292.57 498.81 291.80 C 500.28 288.07 500.24 284.08 500.25 280.15 Z" />
<path fill="#007cc3" opacity="1.00" d=" M 489.41 278.39 C 492.98 277.60 494.88 282.07 494.64 285.01 C 494.71 287.88 492.48 292.17 489.07 290.85 C 484.79 288.30 484.88 280.63 489.41 278.39 Z" />
<path fill="#007cc3" opacity="1.00" d=" M 550.21 279.18 C 553.16 277.63 555.41 281.34 555.64 283.88 C 556.16 286.92 554.81 291.90 550.98 291.64 C 546.41 289.54 546.28 282.01 550.21 279.18 Z" />
<path fill="#007cc3" opacity="1.00" d=" M 519.55 288.37 C 519.76 288.38 520.18 288.41 520.39 288.42 C 522.96 291.66 525.29 295.09 527.77 298.41 C 528.62 299.38 528.61 300.69 528.69 301.91 C 531.24 377.37 533.95 452.83 536.51 528.30 C 527.50 528.30 518.49 528.31 509.48 528.30 C 510.12 473.17 510.83 418.05 511.50 362.93 C 511.86 341.42 511.83 319.87 512.42 298.38 C 514.54 294.88 517.11 291.65 519.55 288.37 Z" />
<path fill="#007cc3" opacity="1.00" d=" M 534.22 299.60 C 537.79 298.64 541.36 297.73 544.94 296.84 C 549.37 374.90 553.85 452.96 558.23 531.03 C 552.93 529.66 547.55 528.63 542.15 527.83 C 539.52 451.75 536.87 375.67 534.22 299.60 Z" />
<path fill="#007cc3" opacity="1.00" d=" M 489.06 531.09 C 492.24 453.22 495.11 375.33 498.43 297.47 C 501.14 298.20 503.86 298.92 506.59 299.62 C 505.76 375.78 504.73 451.95 503.83 528.11 C 498.90 529.06 493.92 529.80 489.06 531.09 Z" />
<path fill="#007cc3" opacity="1.00" d=" M 500.42 534.53 C 502.58 534.15 504.78 533.97 506.98 533.96 C 519.00 533.90 531.02 534.05 543.04 533.87 C 547.79 534.16 552.41 535.45 557.03 536.56 C 559.44 537.32 562.38 537.77 563.92 540.02 C 564.67 542.33 562.57 545.73 559.90 544.70 C 550.02 542.77 540.11 540.64 530.00 540.32 C 515.54 539.53 501.24 542.27 487.08 544.77 C 483.59 545.53 481.76 539.47 485.34 538.30 C 490.10 536.21 495.37 535.63 500.42 534.53 Z" />
<path fill="#007cc3" opacity="1.00" d=" M 511.43 546.64 C 529.83 544.44 548.91 546.73 565.96 554.10 C 572.16 556.39 572.27 566.09 566.99 569.23 C 564.28 568.73 561.69 567.78 559.02 567.15 C 535.18 561.12 509.88 561.80 486.12 567.89 C 484.11 568.40 482.09 569.01 480.02 569.19 C 476.90 566.61 475.88 561.86 477.27 558.13 C 478.41 555.31 481.34 553.92 484.06 553.02 C 492.92 549.95 502.10 547.76 511.43 546.64 Z" />
<path fill="#007cc3" opacity="1.00" d=" M 511.84 569.10 C 519.68 568.88 527.53 569.03 535.38 569.00 C 535.40 573.53 535.39 578.06 535.39 582.60 C 527.54 582.22 519.66 582.21 511.82 582.85 C 511.81 578.27 511.80 573.68 511.84 569.10 Z" />
<path fill="#007cc3" opacity="1.00" d=" M 482.44 574.60 C 490.20 572.57 498.04 570.82 506.01 569.81 C 505.73 574.28 506.64 579.16 505.59 583.38 C 497.80 584.52 489.98 585.71 482.34 587.69 C 482.35 583.32 482.27 578.96 482.44 574.60 Z" />
<path fill="#007cc3" opacity="1.00" d=" M 541.27 583.07 C 541.31 578.55 541.16 574.03 541.42 569.52 C 549.34 570.88 557.52 571.93 565.00 574.94 C 565.25 579.09 565.01 583.27 565.08 587.44 C 557.26 585.38 549.29 584.00 541.27 583.07 Z" />
<path fill="#007cc3" opacity="1.00" d=" M 509.49 588.71 C 530.63 586.67 552.27 588.73 572.42 595.57 C 575.72 596.68 579.57 599.04 579.33 603.04 C 579.35 606.73 576.34 611.85 572.03 609.97 C 540.26 602.04 506.71 602.81 474.90 610.09 C 470.75 611.47 468.11 606.48 468.10 603.00 C 467.88 599.09 471.56 596.55 474.91 595.59 C 486.17 592.17 497.77 589.86 509.49 588.71 Z" />
<path fill="#007cc3" opacity="1.00" d=" M 511.99 610.27 C 519.38 609.96 526.79 609.86 534.20 610.14 C 534.25 614.96 534.21 619.79 534.24 624.62 C 526.76 624.66 519.28 623.72 511.81 624.72 C 511.87 619.90 511.65 615.08 511.99 610.27 Z" />
<path fill="#007cc3" opacity="1.00" d=" M 481.36 614.54 C 489.06 612.84 496.91 611.74 504.77 610.98 C 504.74 615.61 504.74 620.24 504.77 624.88 C 496.83 624.93 488.89 625.03 480.95 624.99 C 481.17 621.55 480.38 617.78 481.36 614.54 Z" />
<path fill="#007cc3" opacity="1.00" d=" M 539.90 610.54 C 547.89 611.17 555.88 612.17 563.71 613.94 C 563.69 617.56 563.69 621.18 563.71 624.80 C 555.82 624.41 547.92 624.46 540.03 624.68 C 539.78 619.96 539.91 615.25 539.90 610.54 Z" />
<path fill="#007cc3" opacity="1.00" d=" M 481.24 631.10 C 493.13 630.06 505.08 631.06 516.97 630.03 C 521.98 629.52 527.00 630.30 532.02 630.28 C 542.61 630.37 553.20 629.85 563.79 630.43 C 563.93 635.41 563.83 640.40 563.88 645.38 C 553.26 645.32 542.65 645.24 532.04 645.24 C 525.52 645.30 518.99 644.51 512.49 645.21 C 502.09 646.15 491.63 646.01 481.23 646.95 C 481.25 641.66 481.24 636.38 481.24 631.10 Z" />
<path fill="#007cc3" opacity="1.00" d=" M 569.54 631.69 C 582.60 636.17 595.66 640.64 608.70 645.16 C 610.21 648.10 611.20 651.25 611.72 654.52 C 597.67 651.61 583.48 649.45 569.48 646.35 C 569.56 641.46 569.49 636.57 569.54 631.69 Z" />
<path fill="#007cc3" opacity="1.00" d=" M 442.04 646.93 C 453.27 642.35 464.29 637.26 475.61 632.90 C 475.58 637.79 475.57 642.69 475.60 647.59 C 462.94 651.15 450.18 654.30 437.53 657.86 C 435.25 653.91 437.86 648.31 442.04 646.93 Z" />
<path fill="#007cc3" opacity="1.00" d=" M 481.21 652.96 C 493.47 651.95 505.77 651.37 518.05 650.56 C 533.31 651.19 548.59 650.58 563.84 651.26 C 563.86 654.13 563.87 657.00 563.87 659.88 C 551.94 659.24 539.98 659.38 528.04 659.09 C 523.36 658.99 518.68 658.47 514.01 658.86 C 503.12 659.69 492.18 659.71 481.28 660.42 C 481.25 657.93 481.23 655.44 481.21 652.96 Z" />
<path fill="#007cc3" opacity="1.00" d=" M 569.49 652.32 C 583.25 655.02 597.13 657.14 610.81 660.23 C 612.65 663.33 614.11 666.63 615.09 670.10 C 599.92 666.98 584.74 663.98 569.57 660.86 C 569.52 658.01 569.50 655.16 569.49 652.32 Z" />
<path fill="#007cc3" opacity="1.00" d=" M 439.17 663.21 C 451.30 660.01 463.42 656.76 475.54 653.50 C 475.57 655.88 475.60 658.27 475.63 660.66 C 461.63 664.71 447.21 666.97 433.13 670.70 C 433.94 667.57 435.62 663.84 439.17 663.21 Z" />
<path fill="#007cc3" opacity="1.00" d=" M 481.22 666.10 C 493.47 665.35 505.74 665.11 517.99 664.37 C 533.23 665.07 548.51 664.79 563.75 665.46 C 563.86 668.29 563.89 671.11 563.88 673.95 C 547.92 674.48 531.99 672.90 516.05 672.39 C 504.45 673.17 492.85 673.96 481.25 674.73 C 481.24 671.85 481.24 668.97 481.22 666.10 Z" />
<path fill="#007cc3" opacity="1.00" d=" M 437.59 675.42 C 450.23 672.37 462.97 669.68 475.66 666.87 C 475.59 669.53 475.57 672.20 475.62 674.88 C 460.76 679.14 445.56 682.06 430.61 686.00 C 430.61 681.66 432.73 676.09 437.59 675.42 Z" />
<path fill="#007cc3" opacity="1.00" d=" M 569.54 666.67 C 584.94 670.06 600.54 672.56 615.88 676.24 C 618.00 678.96 618.15 682.61 618.39 685.92 C 601.99 682.86 585.88 678.50 569.53 675.19 C 569.51 672.34 569.51 669.51 569.54 666.67 Z" />
<path fill="#007cc3" opacity="1.00" d=" M 481.27 680.38 C 493.18 679.63 505.08 678.72 516.99 678.04 C 532.59 678.80 548.19 679.56 563.79 680.42 C 563.86 683.26 563.88 686.09 563.89 688.94 C 558.61 688.46 553.33 689.06 548.05 689.06 C 537.34 689.21 526.66 688.12 515.96 687.91 C 504.38 688.59 492.81 689.52 481.21 689.99 C 481.23 686.79 481.24 683.58 481.27 680.38 Z" />
<path fill="#007cc3" opacity="1.00" d=" M 434.79 690.74 C 448.40 687.45 462.03 684.22 475.65 680.97 C 475.59 684.10 475.57 687.23 475.58 690.36 C 459.08 694.30 442.54 698.13 425.81 700.97 C 425.53 698.42 426.34 695.94 427.96 693.97 C 429.36 691.56 432.41 691.51 434.79 690.74 Z" />
<path fill="#007cc3" opacity="1.00" d=" M 569.54 681.80 C 584.65 685.13 599.80 688.22 614.91 691.55 C 619.53 692.25 620.73 697.66 622.60 701.22 C 604.79 698.16 587.31 693.54 569.57 690.15 C 569.51 687.36 569.50 684.58 569.54 681.80 Z" />
<path fill="#007cc3" opacity="1.00" d=" M 477.98 695.98 C 489.35 695.16 500.73 694.63 512.10 693.79 C 518.39 693.19 524.69 694.04 530.98 694.21 C 541.97 694.84 553.00 694.99 563.96 695.98 C 575.12 698.26 586.33 700.34 597.46 702.79 C 583.66 703.64 569.79 702.95 555.97 703.04 C 524.32 703.27 492.67 703.11 461.01 703.15 C 456.20 703.06 451.36 703.46 446.58 702.81 C 453.35 701.20 460.18 699.84 466.96 698.23 C 470.61 697.38 474.21 696.20 477.98 695.98 Z" />
<path fill="#007cc3" opacity="1.00" d=" M 394.15 708.86 C 473.74 708.73 553.34 708.84 632.94 708.81 C 638.15 708.89 643.37 708.58 648.57 709.03 C 648.51 711.34 648.50 713.66 648.53 715.98 C 599.34 716.38 550.14 716.04 500.94 716.16 C 465.35 716.14 429.75 716.19 394.16 716.13 C 394.16 713.70 394.15 711.28 394.15 708.86 Z" />
<path fill="#007cc3" opacity="1.00" d=" M 385.69 722.01 C 476.12 722.02 566.55 722.00 656.98 722.02 C 656.98 724.58 656.97 727.16 656.94 729.74 C 566.56 729.73 476.18 729.66 385.80 729.77 C 385.68 727.18 385.64 724.59 385.69 722.01 Z" />
<path fill="#007cc3" opacity="1.00" d=" M 371.90 735.51 C 471.44 735.41 570.98 735.66 670.51 735.38 C 670.63 736.61 670.75 737.84 670.88 739.09 C 571.23 739.32 471.57 739.13 371.92 739.18 C 371.91 738.27 371.91 736.43 371.90 735.51 Z" />
<path fill="#007cc3" opacity="1.00" d=" M 363.08 744.88 C 470.70 744.86 578.31 744.87 685.93 744.88 C 685.94 748.17 685.94 751.46 685.92 754.76 C 578.31 754.76 470.71 754.73 363.11 754.78 C 363.06 751.47 363.06 748.18 363.08 744.88 Z" />
<path fill="#007cc3" opacity="1.00" d=" M 349.65 761.82 C 464.10 761.79 578.55 761.81 693.00 761.81 C 692.99 763.92 692.99 766.03 693.00 768.15 C 578.55 768.16 464.11 768.16 349.66 768.15 C 349.65 766.03 349.65 763.92 349.65 761.82 Z" />
<path fill="#007cc3" opacity="1.00" d=" M 337.01 775.28 C 459.91 775.32 582.81 775.28 705.72 775.30 C 705.71 778.24 705.72 781.19 705.75 784.14 C 582.82 784.34 459.88 784.18 336.94 784.22 C 336.91 781.23 336.93 778.25 337.01 775.28 Z" />
<path fill="#007cc3" opacity="1.00" d=" M 325.27 790.16 C 455.97 790.10 586.67 790.16 717.37 790.13 C 717.36 792.06 717.36 794.00 717.37 795.95 C 586.66 795.91 455.96 795.99 325.25 795.91 C 325.26 793.98 325.26 792.07 325.27 790.16 Z" />
<path fill="#007cc3" opacity="1.00" d=" M 315.51 810.52 C 315.31 807.52 315.31 804.51 315.53 801.52 C 452.77 801.69 590.02 801.52 727.26 801.60 C 727.27 804.55 727.27 807.49 727.26 810.44 C 590.01 810.51 452.76 810.37 315.51 810.52 Z" />
<path fill="#007cc3" opacity="1.00" d=" M 299.96 816.22 C 447.57 816.31 595.19 816.24 742.80 816.26 C 742.81 819.26 742.81 822.26 742.82 825.27 C 595.17 825.33 447.51 825.29 299.86 825.29 C 299.80 822.26 299.82 819.24 299.96 816.22 Z" />
<path fill="#007cc3" opacity="1.00" d=" M 288.19 830.97 C 443.61 830.94 599.03 830.95 754.46 830.96 C 754.48 835.25 754.50 839.54 754.43 843.83 C 599.01 843.79 443.60 843.84 288.19 843.81 C 288.18 839.52 288.18 835.24 288.19 830.97 Z" />
</g>
</svg>
